<?xml version="1.0" encoding="utf-8"?>
<!-- Generator: Adobe Illustrator 16.0.0, SVG Export Plug-In . SVG Version: 6.00 Build 0)  -->
<!DOCTYPE svg PUBLIC "-//W3C//DTD SVG 1.1//EN" "http://www.w3.org/Graphics/SVG/1.1/DTD/svg11.dtd">
<svg version="1.1" id="Layer_1" xmlns="http://www.w3.org/2000/svg" xmlns:xlink="http://www.w3.org/1999/xlink" x="0px" y="0px"
	 width="1237px" height="1098px" viewBox="0 0 1237 1098" enable-background="new 0 0 1237 1098" xml:space="preserve">
<g id="SPLINE_9_">
	
		<linearGradient id="SVGID_1_" gradientUnits="userSpaceOnUse" x1="-681.6121" y1="-94.675" x2="-1617.9607" y2="-635.2759" gradientTransform="matrix(1 0 0 1 1771.9199 962.665)">
		<stop  offset="0" style="stop-color:#F120A2;stop-opacity:0.6"/>
		<stop  offset="1" style="stop-color:#417DC0;stop-opacity:0.7"/>
	</linearGradient>
	<path fill="url(#SVGID_1_)" d="M1113.438,761.979c-73.867,54.983-147.734,109.969-221.604,164.952
		c-36.646,27.28-73.184,54.729-109.969,81.827c-33.434,24.63-68.057,48.382-106.307,64.956
		c-78.523,34.022-166.937,30.813-245.756-0.37c-80.125-31.701-144.396-89.453-209.258-144.396
		c-35.144-29.771-70.287-59.542-105.432-89.313c-30.958-26.225-60.479-54.321-81.447-89.438
		c-41.617-69.7-48.73-160.771,9.769-223.06c28.778-30.644,65.085-54.146,98.64-79.122c36.998-27.54,73.995-55.079,110.993-82.619
		c72.206-53.746,143.12-110.165,217.464-160.924c66.126-45.146,141.564-84.938,222.42-93.074
		c80.234-8.076,157.504,23.049,223.998,65.567c71.949,46.01,134.984,106.354,199.975,161.408
		c30.457,25.8,60.766,52.44,82.943,86.007c22.229,33.631,34.656,73.313,36.896,113.491c2.52,45.122-8.152,91.05-30.984,130.109
		C1183.323,706.415,1149.252,736.321,1113.438,761.979C1005.588,842.259,1146.315,738.428,1113.438,761.979z"/>
</g>
<defs>
	
	
		<animateTransform  type="scale" fill="freeze" restart="always" accumulate="none" calcMode="spline" keySplines="0.333 0 0.667 1;0.333 0 0.667 1;0.333 0 0.667 1;0.333 0 0.667 1;0.333 0 0.667 1;0.167 0 0.833 1;0 0 0 0" values="0 0;0 0;1.2 1.2;0.9 0.9;1.05 1.05;1 1;0 0;0 0" keyTimes="0;0.25;0.4333333;0.5583333;0.6583333;0.75;0.9916667;1" additive="sum" to="0 0" from="0 0" attributeName="transform" xlink:href="#_R_G_L_8_G" begin="0s" dur="4s" repeatCount="indefinite">
		</animateTransform>
	
		<animateTransform  type="translate" fill="freeze" restart="always" accumulate="none" calcMode="spline" keySplines="0 0 1 1" values="-426.065 -591.895;-426.065 -591.895" keyTimes="0;1" additive="sum" to="-426.065 -591.895" from="-426.065 -591.895" attributeName="transform" xlink:href="#_R_G_L_8_G" begin="0s" dur="4s" repeatCount="indefinite">
		</animateTransform>
	
		<animateMotion  fill="freeze" keyPoints="0;0.17;0.33;0.5;0.67;0.83;1;1" path="M618.07 548.9 C618.07,546.06 618.07,531.9 618.07,531.9 C618.07,531.9 618.07,548.9 618.07,548.9 C618.07,548.9 618.07,531.9 618.07,531.9 C618.07,531.9 618.07,548.9 618.07,548.9 C618.07,548.9 618.07,531.9 618.07,531.9 C618.07,531.9 618.07,546.06 618.07,548.9 C618.07,548.9 618.07,548.9 618.07,548.9 " restart="always" accumulate="none" calcMode="spline" keySplines="0.333 0 0.667 1;0.333 0 0.667 1;0.333 0 0.667 1;0.333 0 0.667 1;0.333 0 0.667 1;0.333 0 0.667 1;0 0 0 0" keyTimes="0;0.1666667;0.3333333;0.5;0.6666667;0.8333333;0.9916667;1" additive="replace" xlink:href="#_R_G_L_7_G" begin="0s" dur="4s" repeatCount="indefinite">
		</animateMotion>
	
		<animateTransform  type="translate" fill="freeze" restart="always" accumulate="none" calcMode="spline" keySplines="0 0 1 1" values="-618.065 -548.895;-618.065 -548.895" keyTimes="0;1" additive="sum" to="-618.065 -548.895" from="-618.065 -548.895" attributeName="transform" xlink:href="#_R_G_L_7_G" begin="0s" dur="4s" repeatCount="indefinite">
		</animateTransform>
	
		<animateMotion  fill="freeze" keyPoints="0;0.5;1;1" path="M471.03 189.05 C471.03,203.55 471.03,276.05 471.03,276.05 C471.03,276.05 471.03,203.55 471.03,189.05 C471.03,189.05 471.03,189.05 471.03,189.05 " restart="always" accumulate="none" calcMode="spline" keySplines="0.167 0.167 0.833 0.833;0.167 0.167 0.833 0.833;0 0 0 0" keyTimes="0;0.5;0.9916667;1" additive="replace" xlink:href="#_R_G_L_6_G_D_0_P_0_G_0_T_0" begin="0s" dur="4s" repeatCount="indefinite">
		</animateMotion>
	
		<animate  fill="freeze" attributeType="XML" restart="always" accumulate="none" calcMode="spline" keySplines="0.167 0.167 0.833 0.833;0.167 0.167 0.833 0.833;0 0 0 0" values="M468.46 221.15 C461.17,217.04 414.92,189.6 415,195.1 C415.2,211.78 416.14,289.05 416.42,311.01 C416.61,326.06 411.71,344.38 427.18,352.82 C434.89,357.03 442.37,361.4 449.93,365.88 C455.3,369.06 460.67,372.25 466.04,375.44 C468.66,377 468,363.56 468,363.03 C468.07,345.13 469.65,221.78 468.46,221.15z ;M468.71 308.9 C461.42,304.79 416.25,278.1 416.25,278.1 C416.25,278.1 416.14,289.05 416.42,311.01 C416.61,326.06 411.71,344.38 427.18,352.82 C434.89,357.03 442.37,361.4 449.93,365.88 C455.3,369.06 460.67,372.25 466.04,375.44 C468.66,377 468,363.56 468,363.03 C468.07,345.13 469.9,309.53 468.71,308.9z ;M468.46 221.15 C461.17,217.04 414.92,189.6 415,195.1 C415.2,211.78 416.14,289.05 416.42,311.01 C416.61,326.06 411.71,344.38 427.18,352.82 C434.89,357.03 442.37,361.4 449.93,365.88 C455.3,369.06 460.67,372.25 466.04,375.44 C468.66,377 468,363.56 468,363.03 C468.07,345.13 469.65,221.78 468.46,221.15z ;M468.46 221.15 C461.17,217.04 414.92,189.6 415,195.1 C415.2,211.78 416.14,289.05 416.42,311.01 C416.61,326.06 411.71,344.38 427.18,352.82 C434.89,357.03 442.37,361.4 449.93,365.88 C455.3,369.06 460.67,372.25 466.04,375.44 C468.66,377 468,363.56 468,363.03 C468.07,345.13 469.65,221.78 468.46,221.15z " keyTimes="0;0.5;0.9916667;1" additive="replace" to="M468.46 221.15 C461.17,217.04 414.92,189.6 415,195.1 C415.2,211.78 416.14,289.05 416.42,311.01 C416.61,326.06 411.71,344.38 427.18,352.82 C434.89,357.03 442.37,361.4 449.93,365.88 C455.3,369.06 460.67,372.25 466.04,375.44 C468.66,377 468,363.56 468,363.03 C468.07,345.13 469.65,221.78 468.46,221.15z " from="M468.46 221.15 C461.17,217.04 414.92,189.6 415,195.1 C415.2,211.78 416.14,289.05 416.42,311.01 C416.61,326.06 411.71,344.38 427.18,352.82 C434.89,357.03 442.37,361.4 449.93,365.88 C455.3,369.06 460.67,372.25 466.04,375.44 C468.66,377 468,363.56 468,363.03 C468.07,345.13 469.65,221.78 468.46,221.15z " attributeName="d" xlink:href="#_R_G_L_6_G_D_1_P_0" begin="0s" dur="4s" repeatCount="indefinite">
		</animate>
	
		<animate  fill="freeze" attributeType="XML" restart="always" accumulate="none" calcMode="spline" keySplines="0.167 0.167 0.833 0.833;0.167 0.167 0.833 0.833;0 0 0 0" values="M528.16 188.79 C512.05,198.11 468.63,222.35 468.63,222.35 C468.63,222.35 468.08,329.14 467.96,369.28 C467.93,380.9 474.94,372.56 481.66,368.7 C486.95,365.67 492.24,362.63 497.53,359.59 C505.73,354.89 513.92,350.19 522.11,345.49 C531.98,339.82 528.32,329.15 528.36,318.56 C528.46,296.37 529.22,188.38 528.16,188.79z ;M526.16 276.79 C510.05,286.11 468.88,308.86 468.88,308.86 C468.88,308.86 468.08,329.14 467.96,369.28 C467.93,380.9 474.94,372.56 481.66,368.7 C486.95,365.67 492.24,362.63 497.53,359.59 C505.73,354.89 513.92,350.19 522.11,345.49 C531.98,339.82 528.32,329.15 528.36,318.56 C528.46,296.37 527.22,276.38 526.16,276.79z ;M528.16 188.79 C512.05,198.11 468.63,222.35 468.63,222.35 C468.63,222.35 468.08,329.14 467.96,369.28 C467.93,380.9 474.94,372.56 481.66,368.7 C486.95,365.67 492.24,362.63 497.53,359.59 C505.73,354.89 513.92,350.19 522.11,345.49 C531.98,339.82 528.32,329.15 528.36,318.56 C528.46,296.37 529.22,188.38 528.16,188.79z ;M528.16 188.79 C512.05,198.11 468.63,222.35 468.63,222.35 C468.63,222.35 468.08,329.14 467.96,369.28 C467.93,380.9 474.94,372.56 481.66,368.7 C486.95,365.67 492.24,362.63 497.53,359.59 C505.73,354.89 513.92,350.19 522.11,345.49 C531.98,339.82 528.32,329.15 528.36,318.56 C528.46,296.37 529.22,188.38 528.16,188.79z " keyTimes="0;0.5;0.9916667;1" additive="replace" to="M528.16 188.79 C512.05,198.11 468.63,222.35 468.63,222.35 C468.63,222.35 468.08,329.14 467.96,369.28 C467.93,380.9 474.94,372.56 481.66,368.7 C486.95,365.67 492.24,362.63 497.53,359.59 C505.73,354.89 513.92,350.19 522.11,345.49 C531.98,339.82 528.32,329.15 528.36,318.56 C528.46,296.37 529.22,188.38 528.16,188.79z " from="M528.16 188.79 C512.05,198.11 468.63,222.35 468.63,222.35 C468.63,222.35 468.08,329.14 467.96,369.28 C467.93,380.9 474.94,372.56 481.66,368.7 C486.95,365.67 492.24,362.63 497.53,359.59 C505.73,354.89 513.92,350.19 522.11,345.49 C531.98,339.82 528.32,329.15 528.36,318.56 C528.46,296.37 529.22,188.38 528.16,188.79z " attributeName="d" xlink:href="#_R_G_L_6_G_D_2_P_0" begin="0s" dur="4s" repeatCount="indefinite">
		</animate>
	
		<animateMotion  fill="freeze" keyPoints="0;0.24;0.73;1;1" path="M384.16 304.58 C384.16,314.24 384.16,374.08 384.16,362.58 C384.16,351.08 384.16,245.24 384.16,235.58 C384.16,225.91 384.16,293.08 384.16,304.58 C384.16,304.58 384.16,304.58 384.16,304.58 " restart="always" accumulate="none" calcMode="spline" keySplines="0.167 0.167 0.833 0.833;0.167 0.167 0.833 0.833;0.167 0.167 0.833 0.833;0 0 0 0" keyTimes="0;0.25;0.75;0.9916667;1" additive="replace" xlink:href="#_R_G_L_6_G_D_3_P_0_G_0_T_0" begin="0s" dur="4s" repeatCount="indefinite">
		</animateMotion>
	
		<animate  fill="freeze" attributeType="XML" restart="always" accumulate="none" calcMode="spline" keySplines="0.167 0.167 0.833 0.833;0.167 0.167 0.833 0.833;0.167 0.167 0.833 0.833;0 0 0 0" values="M384.54 418.48 C384.65,433.4 372.83,419.54 365.6,414.73 C360.21,411.14 334.63,398.69 334.48,392.19 C333.9,366.36 333.56,340.49 332.96,314.65 C332.62,299.84 384.49,331.81 383.96,338.94 C384.17,367.22 384.35,391.97 384.54,418.48z ;M384.54 418.48 C384.65,433.4 372.83,419.54 365.6,414.73 C360.21,411.14 334.63,398.69 334.48,392.19 C333.9,366.36 334.71,364.4 334.71,364.4 C334.71,364.4 384.21,393.19 384.21,393.19 C384.21,393.19 384.35,391.97 384.54,418.48z ;M384.54 418.48 C384.65,433.4 372.83,419.54 365.6,414.73 C360.21,411.14 334.63,398.69 334.48,392.19 C333.9,366.36 334.96,234.4 334.96,234.4 C334.96,234.4 384.71,265.69 384.71,265.69 C384.71,265.69 384.35,391.97 384.54,418.48z ;M384.54 418.48 C384.65,433.4 372.83,419.54 365.6,414.73 C360.21,411.14 334.63,398.69 334.48,392.19 C333.9,366.36 333.56,340.49 332.96,314.65 C332.62,299.84 384.49,331.81 383.96,338.94 C384.17,367.22 384.35,391.97 384.54,418.48z ;M384.54 418.48 C384.65,433.4 372.83,419.54 365.6,414.73 C360.21,411.14 334.63,398.69 334.48,392.19 C333.9,366.36 333.56,340.49 332.96,314.65 C332.62,299.84 384.49,331.81 383.96,338.94 C384.17,367.22 384.35,391.97 384.54,418.48z " keyTimes="0;0.25;0.75;0.9916667;1" additive="replace" to="M384.54 418.48 C384.65,433.4 372.83,419.54 365.6,414.73 C360.21,411.14 334.63,398.69 334.48,392.19 C333.9,366.36 333.56,340.49 332.96,314.65 C332.62,299.84 384.49,331.81 383.96,338.94 C384.17,367.22 384.35,391.97 384.54,418.48z " from="M384.54 418.48 C384.65,433.4 372.83,419.54 365.6,414.73 C360.21,411.14 334.63,398.69 334.48,392.19 C333.9,366.36 333.56,340.49 332.96,314.65 C332.62,299.84 384.49,331.81 383.96,338.94 C384.17,367.22 384.35,391.97 384.54,418.48z " attributeName="d" xlink:href="#_R_G_L_6_G_D_4_P_0" begin="0s" dur="4s" repeatCount="indefinite">
		</animate>
	
		<animate  fill="freeze" attributeType="XML" restart="always" accumulate="none" calcMode="spline" keySplines="0.167 0.167 0.833 0.833;0.167 0.167 0.833 0.833;0.167 0.167 0.833 0.833;0 0 0 0" values="M386.12 425.92 C396.69,419.95 407.25,413.98 417.81,408.02 C423.84,404.61 429.88,401.21 435.91,397.8 C440.13,395.41 435.28,305.81 434.03,306.55 C422.24,313.44 386.84,332.4 383.77,336.4 C380.8,340.26 382.84,427.71 386.12,425.92 C402.72,416.54 384.28,426.92 386.12,425.92z ;M386.12 425.92 C386.12,425.92 407.25,413.98 417.81,408.02 C423.84,404.61 435.91,397.8 435.91,397.8 C435.91,397.8 433.78,365.05 433.78,365.05 C433.78,365.05 383.52,392.9 383.52,392.9 C383.52,392.9 382.84,427.71 386.12,425.92 C402.72,416.54 386.12,425.92 386.12,425.92z ;M386.12 425.92 C386.12,425.92 407.25,413.98 417.81,408.02 C423.84,404.61 435.91,397.8 435.91,397.8 C435.91,397.8 433.03,236.67 433.03,236.67 C433.03,236.67 383.77,266.77 383.77,266.77 C383.77,266.77 382.84,427.71 386.12,425.92 C402.72,416.54 386.12,425.92 386.12,425.92z ;M386.12 425.92 C396.69,419.95 407.25,413.98 417.81,408.02 C423.84,404.61 429.88,401.21 435.91,397.8 C440.13,395.41 435.28,305.81 434.03,306.55 C422.24,313.44 386.84,332.4 383.77,336.4 C380.8,340.26 382.84,427.71 386.12,425.92 C402.72,416.54 384.28,426.92 386.12,425.92z ;M386.12 425.92 C396.69,419.95 407.25,413.98 417.81,408.02 C423.84,404.61 429.88,401.21 435.91,397.8 C440.13,395.41 435.28,305.81 434.03,306.55 C422.24,313.44 386.84,332.4 383.77,336.4 C380.8,340.26 382.84,427.71 386.12,425.92 C402.72,416.54 384.28,426.92 386.12,425.92z " keyTimes="0;0.25;0.75;0.9916667;1" additive="replace" to="M386.12 425.92 C396.69,419.95 407.25,413.98 417.81,408.02 C423.84,404.61 429.88,401.21 435.91,397.8 C440.13,395.41 435.28,305.81 434.03,306.55 C422.24,313.44 386.84,332.4 383.77,336.4 C380.8,340.26 382.84,427.71 386.12,425.92 C402.72,416.54 384.28,426.92 386.12,425.92z " from="M386.12 425.92 C396.69,419.95 407.25,413.98 417.81,408.02 C423.84,404.61 429.88,401.21 435.91,397.8 C440.13,395.41 435.28,305.81 434.03,306.55 C422.24,313.44 386.84,332.4 383.77,336.4 C380.8,340.26 382.84,427.71 386.12,425.92 C402.72,416.54 384.28,426.92 386.12,425.92z " attributeName="d" xlink:href="#_R_G_L_6_G_D_5_P_0" begin="0s" dur="4s" repeatCount="indefinite">
		</animate>
	
		<animateMotion  fill="freeze" keyPoints="0;0.5;1;1" path="M309.89 378.99 C309.89,369.57 309.89,322.49 309.89,322.49 C309.89,322.49 309.89,369.57 309.89,378.99 C309.89,378.99 309.89,378.99 309.89,378.99 " restart="always" accumulate="none" calcMode="spline" keySplines="0.167 0.167 0.833 0.833;0.167 0.167 0.833 0.833;0 0 0 0" keyTimes="0;0.5;0.9916667;1" additive="replace" xlink:href="#_R_G_L_6_G_D_6_P_0_G_0_T_0" begin="0s" dur="4s" repeatCount="indefinite">
		</animateMotion>
	
		<animate  fill="freeze" attributeType="XML" restart="always" accumulate="none" calcMode="spline" keySplines="0.167 0.167 0.833 0.833;0.167 0.167 0.833 0.833;0 0 0 0" values="M310.71 411.88 C310.79,422.52 310.86,433.15 310.94,443.78 C310.96,446.07 311.13,468.64 309.16,467.34 C301.35,462.14 293.54,456.94 285.73,451.74 C281.15,448.69 261.17,439.2 261,433.49 C260.7,424.08 260.83,414.59 260.61,405.16 C260.53,401.49 260.5,381.5 261.04,381.09 C263.25,383.75 306.88,409.5 310.71,411.88z ;M309.21 355.13 C309.75,357.25 310.86,433.15 310.94,443.78 C310.96,446.07 311.13,468.64 309.16,467.34 C301.35,462.14 293.54,456.94 285.73,451.74 C281.15,448.68 261.17,439.2 261,433.49 C260.7,424.08 260.83,414.59 260.61,405.15 C260.53,401.49 259.07,324.93 260.04,325.47 C265.5,328.5 303,352.25 309.21,355.13z ;M310.71 411.88 C310.79,422.52 310.86,433.15 310.94,443.78 C310.96,446.07 311.13,468.64 309.16,467.34 C301.35,462.14 293.54,456.94 285.73,451.74 C281.15,448.68 261.17,439.2 261,433.49 C260.7,424.08 260.83,414.59 260.61,405.16 C260.53,401.49 260.5,381.5 261.04,381.09 C263.25,383.75 306.88,409.5 310.71,411.88z ;M310.71 411.88 C310.79,422.52 310.86,433.15 310.94,443.78 C310.96,446.07 311.13,468.64 309.16,467.34 C301.35,462.14 293.54,456.94 285.73,451.74 C281.15,448.68 261.17,439.2 261,433.49 C260.7,424.08 260.83,414.59 260.61,405.16 C260.53,401.49 260.5,381.5 261.04,381.09 C263.25,383.75 306.88,409.5 310.71,411.88z " keyTimes="0;0.5;0.9916667;1" additive="replace" to="M310.71 411.88 C310.79,422.52 310.86,433.15 310.94,443.78 C310.96,446.07 311.13,468.64 309.16,467.34 C301.35,462.14 293.54,456.94 285.73,451.74 C281.15,448.68 261.17,439.2 261,433.49 C260.7,424.08 260.83,414.59 260.61,405.16 C260.53,401.49 260.5,381.5 261.04,381.09 C263.25,383.75 306.88,409.5 310.71,411.88z " from="M310.71 411.88 C310.79,422.52 310.86,433.15 310.94,443.78 C310.96,446.07 311.13,468.64 309.16,467.34 C301.35,462.14 293.54,456.94 285.73,451.74 C281.15,448.69 261.17,439.2 261,433.49 C260.7,424.08 260.83,414.59 260.61,405.16 C260.53,401.49 260.5,381.5 261.04,381.09 C263.25,383.75 306.88,409.5 310.71,411.88z " attributeName="d" xlink:href="#_R_G_L_6_G_D_7_P_0" begin="0s" dur="4s" repeatCount="indefinite">
		</animate>
	
		<animate  fill="freeze" attributeType="XML" restart="always" accumulate="none" calcMode="spline" keySplines="0.167 0.167 0.833 0.833;0.167 0.167 0.833 0.833;0 0 0 0" values="M309.38 412.35 C309.49,421.56 309.59,430.78 309.7,440 C309.78,446.53 307.01,462.23 310.75,467.68 C312.68,470.49 357.02,443.11 362.43,440.06 C367.55,437.17 364.06,419.01 363.93,414.03 C363.79,408.46 364.08,381.2 362.34,381.99 C358.75,383.63 315.38,409 309.38,412.35z ;M308.88 355.1 C309.13,356 309.59,430.78 309.7,440 C309.78,446.52 307.01,462.23 310.75,467.68 C312.68,470.49 357.02,443.11 362.43,440.06 C367.55,437.17 364.06,419.01 363.93,414.03 C363.79,408.46 364.59,321.68 363.59,322.49 C356.63,328.13 315.13,353.12 308.88,355.1z ;M309.38 412.35 C309.49,421.56 309.59,430.78 309.7,440 C309.78,446.52 307.01,462.23 310.75,467.68 C312.68,470.49 357.02,443.11 362.43,440.06 C367.55,437.17 364.06,419.01 363.93,414.03 C363.79,408.46 364.08,381.2 362.34,381.99 C358.75,383.63 315.38,409 309.38,412.35z ;M309.38 412.35 C309.49,421.56 309.59,430.78 309.7,440 C309.78,446.52 307.01,462.23 310.75,467.68 C312.68,470.49 357.02,443.11 362.43,440.06 C367.55,437.17 364.06,419.01 363.93,414.03 C363.79,408.46 364.08,381.2 362.34,381.99 C358.75,383.63 315.38,409 309.38,412.35z " keyTimes="0;0.5;0.9916667;1" additive="replace" to="M309.38 412.35 C309.49,421.56 309.59,430.78 309.7,440 C309.78,446.52 307.01,462.23 310.75,467.68 C312.68,470.49 357.02,443.11 362.43,440.06 C367.55,437.17 364.06,419.01 363.93,414.03 C363.79,408.46 364.08,381.2 362.34,381.99 C358.75,383.63 315.38,409 309.38,412.35z " from="M309.38 412.35 C309.49,421.56 309.59,430.78 309.7,440 C309.78,446.53 307.01,462.23 310.75,467.68 C312.68,470.49 357.02,443.11 362.43,440.06 C367.55,437.17 364.06,419.01 363.93,414.03 C363.79,408.46 364.08,381.2 362.34,381.99 C358.75,383.63 315.38,409 309.38,412.35z " attributeName="d" xlink:href="#_R_G_L_6_G_D_8_P_0" begin="0s" dur="4s" repeatCount="indefinite">
		</animate>
	
		<animateTransform  type="rotate" fill="freeze" restart="always" accumulate="none" calcMode="spline" keySplines="0.167 0.167 0.833 0.833;0.167 0.167 0.833 0.833;0.167 0.167 0.833 0.833;0 0 0 0" values="0;0;-18;0;0" keyTimes="0;0.5916667;0.6666667;0.75;1" additive="sum" to="0" from="0" attributeName="transform" xlink:href="#_R_G_L_5_G_D_13_P_0_G_0_T_0" begin="0s" dur="4s" repeatCount="indefinite">
		</animateTransform>
	
		<animateTransform  type="translate" fill="freeze" restart="always" accumulate="none" calcMode="spline" keySplines="0 0 1 1" values="-595.825 -523.972;-595.825 -523.972" keyTimes="0;1" additive="sum" to="-595.825 -523.972" from="-595.825 -523.972" attributeName="transform" xlink:href="#_R_G_L_5_G_D_13_P_0_G_0_T_0" begin="0s" dur="4s" repeatCount="indefinite">
		</animateTransform>
	
		<animateTransform  type="rotate" fill="freeze" restart="always" accumulate="none" calcMode="spline" keySplines="0.167 0.167 0.833 0.833;0.167 0.167 0.833 0.833;0.167 0.167 0.833 0.833;0 0 0 0" values="0;0;-18;0;0" keyTimes="0;0.5916667;0.6666667;0.75;1" additive="sum" to="0" from="0" attributeName="transform" xlink:href="#_R_G_L_5_G_D_14_P_0_G_0_T_0" begin="0s" dur="4s" repeatCount="indefinite">
		</animateTransform>
	
		<animateTransform  type="translate" fill="freeze" restart="always" accumulate="none" calcMode="spline" keySplines="0 0 1 1" values="-595.825 -523.972;-595.825 -523.972" keyTimes="0;1" additive="sum" to="-595.825 -523.972" from="-595.825 -523.972" attributeName="transform" xlink:href="#_R_G_L_5_G_D_14_P_0_G_0_T_0" begin="0s" dur="4s" repeatCount="indefinite">
		</animateTransform>
	
		<animateTransform  type="rotate" fill="freeze" restart="always" accumulate="none" calcMode="spline" keySplines="0.167 0.167 0.833 0.833;0.167 0.167 0.833 0.833;0.167 0.167 0.833 0.833;0 0 0 0" values="0;0;-88;0;0" keyTimes="0;0.3083333;0.525;0.725;1" additive="sum" to="0" from="0" attributeName="transform" xlink:href="#_R_G_L_4_G_D_8_P_0_G_1_T_0" begin="0s" dur="4s" repeatCount="indefinite">
		</animateTransform>
	
		<animateTransform  type="translate" fill="freeze" restart="always" accumulate="none" calcMode="spline" keySplines="0 0 1 1" values="14 0;14 0" keyTimes="0;1" additive="sum" to="14 0" from="14 0" attributeName="transform" xlink:href="#_R_G_L_4_G_D_8_P_0_G_1_T_0" begin="0s" dur="4s" repeatCount="indefinite">
		</animateTransform>
	
		<animateTransform  type="rotate" fill="freeze" restart="always" accumulate="none" calcMode="spline" keySplines="0.167 0.167 0.833 0.833;0.167 0.167 0.833 0.833;0.167 0.167 0.833 0.833;0.167 0.167 0.833 0.833;0 0 0 0" values="0;18;-38;-12;0;0" keyTimes="0;0.3083333;0.525;0.725;0.9916667;1" additive="sum" to="0" from="0" attributeName="transform" xlink:href="#_R_G_L_4_G_D_8_P_0_G_0_T_0" begin="0s" dur="4s" repeatCount="indefinite">
		</animateTransform>
	
		<animateTransform  type="translate" fill="freeze" restart="always" accumulate="none" calcMode="spline" keySplines="0 0 1 1" values="-726.986 -340.237;-726.986 -340.237" keyTimes="0;1" additive="sum" to="-726.986 -340.237" from="-726.986 -340.237" attributeName="transform" xlink:href="#_R_G_L_4_G_D_8_P_0_G_0_T_0" begin="0s" dur="4s" repeatCount="indefinite">
		</animateTransform>
	
		<animateTransform  type="rotate" fill="freeze" restart="always" accumulate="none" calcMode="spline" keySplines="0.167 0.167 0.833 0.833;0.167 0.167 0.833 0.833;0.167 0.167 0.833 0.833;0.167 0.167 0.833 0.833;0 0 0 0" values="0;18;-38;-12;0;0" keyTimes="0;0.3083333;0.525;0.725;0.9916667;1" additive="sum" to="0" from="0" attributeName="transform" xlink:href="#_R_G_L_4_G_D_9_P_0_G_0_T_0" begin="0s" dur="4s" repeatCount="indefinite">
		</animateTransform>
	
		<animateTransform  type="translate" fill="freeze" restart="always" accumulate="none" calcMode="spline" keySplines="0 0 1 1" values="-726.986 -340.237;-726.986 -340.237" keyTimes="0;1" additive="sum" to="-726.986 -340.237" from="-726.986 -340.237" attributeName="transform" xlink:href="#_R_G_L_4_G_D_9_P_0_G_0_T_0" begin="0s" dur="4s" repeatCount="indefinite">
		</animateTransform>
	
		<animateTransform  type="rotate" fill="freeze" restart="always" accumulate="none" calcMode="spline" keySplines="0.333 0 0.667 1;0.333 0 0.667 1;0.333 0 0.667 1;0.333 0 0.667 1;0 0 0 0" values="0;0;38;-53;0;0" keyTimes="0;0.2;0.3416667;0.5;0.6916667;1" additive="sum" to="0" from="0" attributeName="transform" xlink:href="#_R_G_L_3_G_D_9_P_0_G_1_T_0" begin="0s" dur="4s" repeatCount="indefinite">
		</animateTransform>
	
		<animateTransform  type="translate" fill="freeze" restart="always" accumulate="none" calcMode="spline" keySplines="0 0 1 1" values="12 -8;12 -8" keyTimes="0;1" additive="sum" to="12 -8" from="12 -8" attributeName="transform" xlink:href="#_R_G_L_3_G_D_9_P_0_G_1_T_0" begin="0s" dur="4s" repeatCount="indefinite">
		</animateTransform>
	
		<animateTransform  type="rotate" fill="freeze" restart="always" accumulate="none" calcMode="spline" keySplines="0.333 0 0.667 1;0.333 0 0.667 1;0.333 0 0.667 1;0.333 0 0.667 1;0 0 0 0" values="112;0;37;-43;112;112" keyTimes="0;0.2;0.3416667;0.5;0.6916667;1" additive="sum" to="112" from="112" attributeName="transform" xlink:href="#_R_G_L_3_G_D_9_P_0_G_0_T_0" begin="0s" dur="4s" repeatCount="indefinite">
		</animateTransform>
	
		<animateTransform  type="translate" fill="freeze" restart="always" accumulate="none" calcMode="spline" keySplines="0 0 1 1" values="-321.048 -685.166;-321.048 -685.166" keyTimes="0;1" additive="sum" to="-321.048 -685.166" from="-321.048 -685.166" attributeName="transform" xlink:href="#_R_G_L_3_G_D_9_P_0_G_0_T_0" begin="0s" dur="4s" repeatCount="indefinite">
		</animateTransform>
	
		<animateTransform  type="rotate" fill="freeze" restart="always" accumulate="none" calcMode="spline" keySplines="0.333 0 0.667 1;0.333 0 0.667 1;0.333 0 0.667 1;0.333 0 0.667 1;0 0 0 0" values="112;0;37;-43;112;112" keyTimes="0;0.2;0.3416667;0.5;0.6916667;1" additive="sum" to="112" from="112" attributeName="transform" xlink:href="#_R_G_L_3_G_D_10_P_0_G_0_T_0" begin="0s" dur="4s" repeatCount="indefinite">
		</animateTransform>
	
		<animateTransform  type="translate" fill="freeze" restart="always" accumulate="none" calcMode="spline" keySplines="0 0 1 1" values="-321.048 -685.166;-321.048 -685.166" keyTimes="0;1" additive="sum" to="-321.048 -685.166" from="-321.048 -685.166" attributeName="transform" xlink:href="#_R_G_L_3_G_D_10_P_0_G_0_T_0" begin="0s" dur="4s" repeatCount="indefinite">
		</animateTransform>
	
		<animateTransform  type="rotate" fill="freeze" restart="always" accumulate="none" calcMode="spline" keySplines="0.167 0.167 0.833 0.833;0.167 0.167 0.833 0.833;0.167 0.167 0.833 0.833;0 0 0 0" values="0;0;-19;0;0" keyTimes="0;0.1333333;0.3;0.4833333;1" additive="sum" to="0" from="0" attributeName="transform" xlink:href="#_R_G_L_2_G_D_5_P_0_G_0_T_0" begin="0s" dur="4s" repeatCount="indefinite">
		</animateTransform>
	
		<animateTransform  type="translate" fill="freeze" restart="always" accumulate="none" calcMode="spline" keySplines="0 0 1 1" values="-828.186 -398.687;-828.186 -398.687" keyTimes="0;1" additive="sum" to="-828.186 -398.687" from="-828.186 -398.687" attributeName="transform" xlink:href="#_R_G_L_2_G_D_5_P_0_G_0_T_0" begin="0s" dur="4s" repeatCount="indefinite">
		</animateTransform>
	
		<animateTransform  type="rotate" fill="freeze" restart="always" accumulate="none" calcMode="spline" keySplines="0.167 0.167 0.833 0.833;0.167 0.167 0.833 0.833;0.167 0.167 0.833 0.833;0 0 0 0" values="0;0;-19;0;0" keyTimes="0;0.1333333;0.3;0.4833333;1" additive="sum" to="0" from="0" attributeName="transform" xlink:href="#_R_G_L_2_G_D_6_P_0_G_0_T_0" begin="0s" dur="4s" repeatCount="indefinite">
		</animateTransform>
	
		<animateTransform  type="translate" fill="freeze" restart="always" accumulate="none" calcMode="spline" keySplines="0 0 1 1" values="-828.186 -398.687;-828.186 -398.687" keyTimes="0;1" additive="sum" to="-828.186 -398.687" from="-828.186 -398.687" attributeName="transform" xlink:href="#_R_G_L_2_G_D_6_P_0_G_0_T_0" begin="0s" dur="4s" repeatCount="indefinite">
		</animateTransform>
	
		<animateTransform  type="rotate" fill="freeze" restart="always" accumulate="none" calcMode="spline" keySplines="0.333 0 0.667 1;0.333 0 0.667 1;0.333 0 0.667 1;0.333 0 0.667 1;0 0 0 0" values="-55;14;0;17.478;-55;-55" keyTimes="0;0.275;0.3833333;0.5;0.65;1" additive="sum" to="-55" from="-55" attributeName="transform" xlink:href="#_R_G_L_1_G_D_10_P_0_G_0_T_0" begin="0s" dur="4s" repeatCount="indefinite">
		</animateTransform>
	
		<animateTransform  type="translate" fill="freeze" restart="always" accumulate="none" calcMode="spline" keySplines="0 0 1 1" values="-895.599 -545.809;-895.599 -545.809" keyTimes="0;1" additive="sum" to="-895.599 -545.809" from="-895.599 -545.809" attributeName="transform" xlink:href="#_R_G_L_1_G_D_10_P_0_G_0_T_0" begin="0s" dur="4s" repeatCount="indefinite">
		</animateTransform>
	
		<animateTransform  type="rotate" fill="freeze" restart="always" accumulate="none" calcMode="spline" keySplines="0.333 0 0.667 1;0.333 0 0.667 1;0.333 0 0.667 1;0.333 0 0.667 1;0 0 0 0" values="-55;14;0;17.478;-55;-55" keyTimes="0;0.275;0.3833333;0.5;0.65;1" additive="sum" to="-55" from="-55" attributeName="transform" xlink:href="#_R_G_L_1_G_D_11_P_0_G_0_T_0" begin="0s" dur="4s" repeatCount="indefinite">
		</animateTransform>
	
		<animateTransform  type="translate" fill="freeze" restart="always" accumulate="none" calcMode="spline" keySplines="0 0 1 1" values="-895.599 -545.809;-895.599 -545.809" keyTimes="0;1" additive="sum" to="-895.599 -545.809" from="-895.599 -545.809" attributeName="transform" xlink:href="#_R_G_L_1_G_D_11_P_0_G_0_T_0" begin="0s" dur="4s" repeatCount="indefinite">
		</animateTransform>
	
		<animateTransform  type="rotate" fill="freeze" restart="always" accumulate="none" calcMode="spline" keySplines="0.167 0.167 0.833 0.833;0.167 0.167 0.833 0.833;0.167 0.167 0.833 0.833;0.167 0.167 0.833 0.833;0 0 0 0" values="0;-30;0;-30;0;0" keyTimes="0;0.25;0.4166667;0.75;0.9916667;1" additive="sum" to="0" from="0" attributeName="transform" xlink:href="#_R_G_L_0_G_D_7_P_0_G_1_T_0" begin="0s" dur="4s" repeatCount="indefinite">
		</animateTransform>
	
		<animateTransform  type="translate" fill="freeze" restart="always" accumulate="none" calcMode="spline" keySplines="0 0 1 1" values="-808.021 -695.935;-808.021 -695.935" keyTimes="0;1" additive="sum" to="-808.021 -695.935" from="-808.021 -695.935" attributeName="transform" xlink:href="#_R_G_L_0_G_D_7_P_0_G_1_T_0" begin="0s" dur="4s" repeatCount="indefinite">
		</animateTransform>
	
		<animateTransform  type="rotate" fill="freeze" restart="always" accumulate="none" calcMode="spline" keySplines="0.167 0.167 0.833 0.833;0.167 0.167 0.833 0.833;0.167 0.167 0.833 0.833;0.167 0.167 0.833 0.833;0 0 0 0" values="0;26;0;26;0;0" keyTimes="0;0.25;0.4166667;0.75;0.9916667;1" additive="sum" to="0" from="0" attributeName="transform" xlink:href="#_R_G_L_0_G_D_7_P_0_G_0_T_0" begin="0s" dur="4s" repeatCount="indefinite">
		</animateTransform>
	
		<animateTransform  type="translate" fill="freeze" restart="always" accumulate="none" calcMode="spline" keySplines="0 0 1 1" values="-827.716 -653.21;-827.716 -653.21" keyTimes="0;1" additive="sum" to="-827.716 -653.21" from="-827.716 -653.21" attributeName="transform" xlink:href="#_R_G_L_0_G_D_7_P_0_G_0_T_0" begin="0s" dur="4s" repeatCount="indefinite">
		</animateTransform>
	
		<animateTransform  type="rotate" fill="freeze" restart="always" accumulate="none" calcMode="spline" keySplines="0.167 0.167 0.833 0.833;0.167 0.167 0.833 0.833;0.167 0.167 0.833 0.833;0.167 0.167 0.833 0.833;0 0 0 0" values="0;-30;0;-30;0;0" keyTimes="0;0.25;0.4166667;0.75;0.9916667;1" additive="sum" to="0" from="0" attributeName="transform" xlink:href="#_R_G_L_0_G_D_8_P_0_G_1_T_0" begin="0s" dur="4s" repeatCount="indefinite">
		</animateTransform>
	
		<animateTransform  type="translate" fill="freeze" restart="always" accumulate="none" calcMode="spline" keySplines="0 0 1 1" values="-808.021 -695.935;-808.021 -695.935" keyTimes="0;1" additive="sum" to="-808.021 -695.935" from="-808.021 -695.935" attributeName="transform" xlink:href="#_R_G_L_0_G_D_8_P_0_G_1_T_0" begin="0s" dur="4s" repeatCount="indefinite">
		</animateTransform>
	
		<animateTransform  type="rotate" fill="freeze" restart="always" accumulate="none" calcMode="spline" keySplines="0.167 0.167 0.833 0.833;0.167 0.167 0.833 0.833;0.167 0.167 0.833 0.833;0.167 0.167 0.833 0.833;0 0 0 0" values="0;26;0;26;0;0" keyTimes="0;0.25;0.4166667;0.75;0.9916667;1" additive="sum" to="0" from="0" attributeName="transform" xlink:href="#_R_G_L_0_G_D_8_P_0_G_0_T_0" begin="0s" dur="4s" repeatCount="indefinite">
		</animateTransform>
	
		<animateTransform  type="translate" fill="freeze" restart="always" accumulate="none" calcMode="spline" keySplines="0 0 1 1" values="-827.716 -653.21;-827.716 -653.21" keyTimes="0;1" additive="sum" to="-827.716 -653.21" from="-827.716 -653.21" attributeName="transform" xlink:href="#_R_G_L_0_G_D_8_P_0_G_0_T_0" begin="0s" dur="4s" repeatCount="indefinite">
		</animateTransform>
	
		<animateTransform  type="rotate" fill="freeze" restart="always" accumulate="none" calcMode="spline" keySplines="0.167 0.167 0.833 0.833;0.167 0.167 0.833 0.833;0.167 0.167 0.833 0.833;0.167 0.167 0.833 0.833;0 0 0 0" values="0;26;0;26;0;0" keyTimes="0;0.25;0.4166667;0.75;0.9916667;1" additive="sum" to="0" from="0" attributeName="transform" xlink:href="#_R_G_L_0_G_D_9_P_0_G_0_T_0" begin="0s" dur="4s" repeatCount="indefinite">
		</animateTransform>
	
		<animateTransform  type="translate" fill="freeze" restart="always" accumulate="none" calcMode="spline" keySplines="0 0 1 1" values="-827.716 -653.21;-827.716 -653.21" keyTimes="0;1" additive="sum" to="-827.716 -653.21" from="-827.716 -653.21" attributeName="transform" xlink:href="#_R_G_L_0_G_D_9_P_0_G_0_T_0" begin="0s" dur="4s" repeatCount="indefinite">
		</animateTransform>
	
		<animate  fill="remove" attributeType="XML" restart="always" accumulate="none" calcMode="linear" additive="replace" to="1" from="0" attributeName="opacity" xlink:href="#time_group" dur="4s">
		</animate>
</defs>
<g id="_R_G">
	<g id="_R_G_L_9_G">
		<path id="_R_G_L_9_G_D_0_P_0" fill="#B61D8A" d="M808.15,593.08c-15.069-11.479-33.49,5.261-46.93,12.841
			C743.35,616,724.57,625.25,707.459,636.58c-11.09,7.37-20.6,18.631-5.72,29.08c18,12.65,39.32,22.051,58.561,32.721
			c15.109,8.38,30.22,18.77,46.88,7.6c19.35-12.98,36.9-29.86,54.95-44.6c6.1-4.98,19.359-12.11,18.689-21.54
			c-0.729-10.16-17.43-15.511-24.79-19.61C840.42,611.53,822.4,603.921,808.15,593.08C806.02,591.461,808.31,593.2,808.15,593.08z"
			/>
		<path id="_R_G_L_9_G_D_1_P_0" fill="#75A4D8" d="M804.22,606.06c-11.48-9.72-33.44,7.93-43.431,13.56
			c-13.81,7.801-32.25,14.41-43.899,25.23c-16.78,15.58,19.13,28.96,28.47,34.41c13.46,7.84,36.891,26.55,52.96,19.66
			c14.03-6.011,29.91-22.86,41.74-32.53c8.94-7.3,31.479-18.93,16.399-30.23C840.5,624.19,820.57,617.631,804.22,606.06
			C797.19,600.11,807,608.03,804.22,606.06z"/>
		<path id="_R_G_L_9_G_D_2_P_0" fill="#696A6F" d="M821.11,633.78c-14.39,8.2-28.779,16.41-43.18,24.61
			c-6.71,3.83-8.01,5.08-1.45,9.729c4.601,3.261,12.18,11.24,17.84,12.061c4.351,0.64,12.46-7.74,15.771-10.11
			c7.18-5.14,14.35-10.27,21.529-15.42c6.79-4.85,6.36-6.09,0.99-11.91C831.3,641.33,824.42,631.4,821.11,633.78
			C805.119,642.9,822.94,632.47,821.11,633.78z"/>
		<path id="_R_G_L_9_G_D_3_P_0" fill="#CED7E1" d="M772.36,664.86c6.62,4.73,13.23,9.47,19.85,14.21c0.9,0.641,1.66,4.021-0.1,2.96
			c-6.43-3.85-12.88-7.67-19.279-11.569C771.18,669.43,770.63,663.461,772.36,664.86C778.98,669.591,771.93,664.52,772.36,664.86z"
			/>
		<path id="_R_G_L_9_G_D_4_P_0" fill="#696A6F" d="M766.47,680.19c-0.65-1.29-1.29-1.29-1.931,0
			C765.18,681.48,765.83,681.48,766.47,680.19z"/>
		<path id="_R_G_L_9_G_D_5_P_0" fill="#AA4F95" d="M880.86,648.02c0.061,36.92,0.12,73.84,0.18,110.76
			c0.03,11.521,4.5,33.09-5.819,41.521c-14.4,11.76-28.811,23.52-43.21,35.279c-9.08,7.42-18.69,17.65-29.561,22.48
			c-14.14,6.28-27.91-1.28-39.74-8.9c-11.119-7.149-22.05-13.64-34.149-18.979c-10.271-4.53-21.79-9.25-28.4-18.86
			c-7.87-11.46-5.47-27.16-5.55-40.26c-0.1-17.59-0.2-35.18-0.3-52.771c-0.101-17.6-0.2-35.189-0.31-52.779
			c-0.03-6.471,27.67,9.81,31.289,11.939c13.07,7.66,26.511,14.601,39.61,22.221c13.76,8.02,27.41,14.359,41.97,4.189
			c13.69-9.56,26.271-21.26,39.211-31.82c6.649-5.439,13.31-10.869,19.959-16.31C866.61,655.27,880.59,642.54,880.86,648.02
			C880.93,692.32,880.67,644.27,880.86,648.02z"/>
		<path id="_R_G_L_9_G_D_6_P_0" fill="#16489A" d="M263.83,776.1c-2.75,18.05,21.34,27.92,35.13,32.95
			c16.229,5.91,33.64,9.06,50.93,9.109c17.28,0.04,34.91-3.05,50.14-11.51c7.171-3.979,13.051-9.05,17.761-15.77
			c1.68-2.4,9.3-20.051,2.58-21.4c-1.32-0.26-8.32,13.31-10.011,14.96c-5.72,5.59-12.72,9.85-20.189,12.64
			c-13.87,5.181-28.45,7.061-43.19,6.141c-14.68-0.9-28.99-4.181-43.33-7.221c-8-1.689-15.46-3.8-22.87-7.31
			C277.72,787.25,265.15,774.82,263.83,776.1C263.24,780.02,266.31,773.69,263.83,776.1z"/>
		<path id="_R_G_L_9_G_D_7_P_0" fill="#3E6DB5" d="M379.36,736.48c22.681,1.44,55.92,22.22,32.561,45.54
			c-21.851,21.82-49.21,22.92-78.431,20.28c-19.8-1.79-41.89-5.9-58.569-17.271c-26.47-18.03-0.66-47.31,23.7-47.27"/>
		<path id="_R_G_L_9_G_D_8_P_0" fill="#70A2D7" d="M258.45,496.94c-35.181,20.78-70.36,41.57-105.551,62.34
			c-19.199,11.351,15.721,25.71,23.21,30.05c17.48,10.101,34.95,20.19,52.42,30.28c34.95,20.19,69.891,40.39,104.83,60.58
			c17.48,10.09,34.95,20.19,52.42,30.29c16.28,9.4,32.69,18.06,51.37,9.67c17.36-7.8,33.57-19.8,49.83-29.67
			c15.85-9.62,32.09-18.8,47.59-28.96c18.92-12.4,6.141-19.23-8.319-27.771c-19.16-11.319-38.311-22.64-57.471-33.96
			c-35.109-20.75-70.229-41.5-105.34-62.25c-17.56-10.369-35.12-20.75-52.68-31.119C295.07,497.14,276.09,483.64,258.45,496.94
			C223.27,517.72,270.51,487.841,258.45,496.94z"/>
		<path id="_R_G_L_9_G_D_9_P_0" fill="#3F6DB5" d="M545.56,659.91c0.14,4.7,1.45,9.82-1.95,13.681
			c-5.62,6.38-14.859,10.38-21.99,14.71c-18.739,11.37-37.47,22.739-56.199,34.109c-14.92,9.061-31.261,22.38-49.891,18.5
			c-20.01-4.16-39.04-19.149-56.479-29.229c-36.54-21.11-73.07-42.22-109.6-63.33c-17.471-10.101-34.95-20.19-52.421-30.29
			l-28.59-16.521c-5.939-3.43-18.75-7.529-19.58-15.739c-0.199-1.98-2.779-14.801,2.19-11.88c9.55,5.59,19.1,11.189,28.65,16.779
			c19.09,11.19,38.189,22.391,57.289,33.57c36.601,21.45,73.2,42.9,109.801,64.36c16.92,9.909,33.59,20.899,51.149,29.64
			c18.7,9.31,32.89,5.95,50.1-4.45c17.471-10.55,34.94-21.1,52.4-31.649c9.52-5.75,19.05-11.511,28.58-17.261
			C532.22,662.98,545.64,650.95,545.56,659.91C545.619,661.87,545.57,658.37,545.56,659.91z"/>
		<path id="_R_G_L_9_G_D_10_P_0" fill="#6857A6" d="M520.26,639.44c0.79,13.4-12.95,20.83-23.051,26.21
			c-13.18,7.04-26.25,14.19-38.59,22.64c-12.14,8.311-25.46,19.641-41.1,18.891c-15.85-0.75-30.319-11.12-43.59-18.79
			c-31.97-18.47-63.94-36.94-95.91-55.42c-15.979-9.23-31.96-18.471-47.95-27.7c-7.989-4.62-15.989-9.24-23.979-13.86
			c-5.01-2.89-14.25-5.42-16.811-11.14c-1.26-2.85-2.689-10.01-0.14-12.64c1.33-1.37,17.92,9.77,20.021,11
			c15.85,9.29,31.699,18.58,47.56,27.869c31.7,18.58,63.41,37.171,95.11,55.75c15.439,9.04,30.68,19.341,46.83,27.061
			c16.199,7.74,29.06,2.189,43.169-6.71c13.261-8.36,26.891-16.14,40.23-24.37C486.789,655.31,517.32,633.631,520.26,639.44
			C521.09,653.421,517.89,634.76,520.26,639.44z"/>
		<path id="_R_G_L_9_G_D_11_P_0" fill="#D686B9" d="M280.01,503.07c-29.44,17.4-58.89,34.78-88.33,52.17
			c-15.71,9.28,12.16,20.94,18.48,24.601c15.819,9.14,31.64,18.279,47.47,27.42c30.06,17.38,60.13,34.75,90.189,52.12
			c25.141,14.52,58.601,44.989,88.15,27.06c13.22-8.03,26.45-16.06,39.68-24.09c12.88-7.811,27.76-14.71,39.39-24.32
			c13.79-11.399-9.119-19.399-17.5-24.35c-15.47-9.15-30.96-18.29-46.439-27.44c-29.41-17.39-58.83-34.77-88.24-52.149
			c-13.939-8.23-27.87-16.471-41.81-24.7C308.81,502.16,293.48,492.45,280.01,503.07C250.57,520.461,289.74,495.4,280.01,503.07z"/>
		<path id="_R_G_L_9_G_D_12_P_0" fill="#BE2E93" d="M419.17,665.44c-24.38-15.62-48.771-31.24-73.15-46.86
			c-9.609-6.159,15.101-17.449,18.04-19.18c10.101-5.93,25.13-19.67,37.63-14.68c12.32,4.92,23.77,14.56,34.9,21.72
			c12.13,7.81,24.26,15.61,36.39,23.42c14.38,9.25-10.68,19.09-17.08,22.88C447.56,657.69,429.289,673.881,419.17,665.44
			C394.79,649.82,424.699,670.051,419.17,665.44z"/>
		<path id="_R_G_L_9_G_D_13_P_0" fill="#BE2E93" d="M352.44,563.79c-5.569-36.529-80.609-25.069-75.029,11.471
			C283,611.801,358.02,600.35,352.44,563.79C350.15,548.76,354.74,578.841,352.44,563.79z M318.69,588.18
			c-11.02,1.689-27.51-2.09-29.529-15.24c-2-13.14,12.619-21.67,23.63-23.35c11.01-1.681,27.52,2.09,29.52,15.229
			C344.32,577.98,329.7,586.5,318.69,588.18C304.01,590.421,333.37,585.94,318.69,588.18z"/>
		<path id="_R_G_L_9_G_D_14_P_0" fill="#37266C" d="M401.8,595.73c-11.08,6.73-22.17,13.46-33.25,20.19
			c-5.25,3.189-7.83,10.189,2.43,10.04c8.48-0.131,23.57-14.07,30.78-18.58c1.45-0.9,13.52-6.03,9.01-8.73
			C408.53,597.31,404.6,593.631,401.8,595.73C389.14,603.43,403.08,594.78,401.8,595.73z"/>
		<path id="_R_G_L_9_G_D_15_P_0" fill="#37266C" d="M436.59,616.5c-2.19-1.409-6-5.06-8.82-5.029
			c-5.24,0.05-13.12,7.39-17.43,10.069c-6.561,4.07-25.65,10.29-15.82,18.021c7.87,6.18,17.021-4.34,23.99-8.94
			C420.37,629.39,438.89,617.85,436.59,616.5C434.42,615.11,438.199,617.44,436.59,616.5z"/>
		<path id="_R_G_L_9_G_D_16_P_0" fill="#37266C" d="M451.59,627.04c-9.551,5.641-19.09,11.271-28.641,16.9
			c-1.14,0.68-9.499,4.09-6.039,7.42c1.869,1.811,6.06,7.9,9.289,5.86c10.33-6.51,20.67-13.01,31-19.521
			c-0.35,0.221,9-4.279,5.681-6.46C460.22,629.5,455.09,624.37,451.59,627.04C440.449,633.61,453.3,625.73,451.59,627.04z"/>
		<path id="_R_G_L_9_G_D_17_P_0" fill="#16489A" d="M299.41,682.03c-0.2,14.12-0.4,28.24-0.601,42.37
			c-0.12,8.47-3.08,22.4,1.24,30.32c11.85,21.74,36.6,27.609,58.689,19c10.641-4.141,19.551-8.09,20.021-20.67
			c0.45-12.681,5.45-26.84-6.73-33.87c-12.319-7.12-24.649-14.24-36.96-21.36c-6.17-3.56-12.33-7.12-18.489-10.68
			C314.43,685.89,299.02,674.29,299.41,682.03C299.11,703.22,299.31,680.12,299.41,682.03z"/>
		<path id="_R_G_L_9_G_D_18_P_0" fill="#E5EAEE" d="M824.209,590.2c-27.829,16.37-55.609,32.82-83.489,49.11
			c-4.811,2.84-19.98,15.479-22.88,7.84c-3.431-9.04,2.13-10.01,10.17-14.75c14.08-8.35,28.199-16.64,42.31-24.96
			c9.69-5.71,19.38-11.43,29.07-17.14c7.02-4.15,14.05-8.29,21.08-12.44C823.949,575.81,829.789,587.4,824.209,590.2
			C819.659,592.881,826.39,589.11,824.209,590.2z"/>
		<path id="_R_G_L_9_G_D_19_P_0" fill="#374358" d="M777.49,611.74c-2.35-2.64-6.979,1.48-4.63,4.12
			C775.209,618.51,779.84,614.39,777.49,611.74z"/>
		
			<path id="_R_G_L_9_G_D_20_P_0" fill="none" stroke="#000000" stroke-width="0.142" stroke-linecap="round" stroke-linejoin="round" d="
			M835.57,537.421c0.64,0.1,1.28,0.21,1.92,0.31"/>
		<path id="_R_G_L_9_G_D_21_P_0" fill="#101116" d="M792.199,489.74c7.181,20.37,14.36,40.74,21.53,61.11
			c1.65,4.67,10.84,21.79,8.39,26.12c-2.43,4.3-12.01,7.42-16.16,9.99c-27.89,17.319-56.729,33.27-85.039,49.92
			c-10.461,6.149-10.271-6.79-13.301-15.301c-3.75-10.529-7.489-21.06-11.239-31.58c-3.74-10.52-7.49-21.05-11.23-31.569
			c-4.31-12.12,1.99-12.94,11.98-18.62c12.909-7.34,25.829-14.68,38.739-22.03c9.61-5.46,19.221-10.93,28.84-16.39
			C768.449,499.25,790.4,483.801,792.199,489.74C801.77,516.9,791.709,488.12,792.199,489.74z"/>
		<path id="_R_G_L_9_G_D_22_P_0" fill="#B9C5E1" d="M787.159,499.41c7.771,22.021,15.521,44.061,23.29,66.09
			c3.57,10.141,3.74,12.551-6.92,17.131c-9.47,4.06-17.54,9.55-26.38,14.75c-7.79,4.58-54.91,36.09-58.09,33
			c-3.021-2.931-4.44-11.48-5.66-14.9c-3.59-10.08-7.17-20.16-10.76-30.24c-3.34-9.39-6.681-18.77-10.021-28.17
			c-2.729-7.689,2.801-8.979,9.381-12.72c14.63-8.32,29.26-16.63,43.88-24.96C752.48,515.64,786.05,495.31,787.159,499.41
			C787.409,500.131,786.789,498.051,787.159,499.41z"/>
		<path id="_R_G_L_9_G_D_23_P_0" fill="#969BCD" d="M781.3,513.01c-8.061,4.56-16.141,9.14-24.2,13.71
			c-8.61,4.88-18.41,6.01-14.29,16.79c3.03,7.96,6.07,15.93,9.11,23.89c1.85,4.84,5.81,23.49,10.55,25.6
			c4.68,2.07,44.21-22.699,42.55-27.21c-3.83-10.369-7.67-20.739-11.5-31.109C792.13,530.9,787.23,509.07,781.3,513.01
			C768.39,520.32,782.99,511.89,781.3,513.01z"/>
		<path id="_R_G_L_9_G_D_24_P_0" fill="#B482AC" d="M782.42,548.91c11.71-5.26,2.649-25.43-9.061-20.18
			C761.65,533.99,770.709,554.171,782.42,548.91z"/>
		<path id="_R_G_L_9_G_D_25_P_0" fill="#BBB9C4" d="M782.52,545.1c6.6-5.3-3.57-17.79-10.08-12.561
			C765.84,537.841,776.01,550.33,782.52,545.1z"/>
		<path id="_R_G_L_9_G_D_26_P_0" fill="#B01F8E" d="M718.64,585.45c-3.351,1.9-9.4,3.16-7.58,7.99c2.58,6.83,5.38,13.59,8.07,20.37
			c2.18,5.36,13.43-1.34,12.479-3.61C730.33,607.11,722.14,582.98,718.64,585.45C716.22,586.82,719.85,584.6,718.64,585.45z"/>
		<path id="_R_G_L_9_G_D_27_P_0" fill="#CF7CB3" d="M735.74,591.11c-2.09,1.16-8.04,2.91-6.52,6.351
			c0.68,1.55,4.04,13.56,7.239,11.779c1.421-0.79,7.971-2.88,6.86-5.43C742.58,602.12,738.6,589.06,735.74,591.11
			C733.98,592.08,736.75,590.381,735.74,591.11z"/>
		<path id="_R_G_L_9_G_D_28_P_0" fill="#E63495" d="M745.77,579.32c-6.49,3.16-9.24,2.891-5.76,10.16
			c0.97,2.02,5.32,15.16,8.439,13.38c6.23-3.54,8.721-2.92,5.641-9.81C753.289,591.26,748.869,577.35,745.77,579.32
			C743.68,580.341,747.09,578.49,745.77,579.32z"/>
		<path id="_R_G_L_9_G_D_29_P_0" fill="#FDFDFB" d="M733.53,545.711c-2.449-4.91-33.439,13.699-31.229,16.939
			C706.08,568.171,734.35,547.04,733.53,545.711C733.32,545.28,734.11,546.64,733.53,545.711z"/>
	</g>
	<g id="_R_G_L_8_G" transform=" translate(415.065, 617.895)">
		<g id="SPLINE_38_">
			
				<linearGradient id="SVGID_2_" gradientUnits="userSpaceOnUse" x1="-1396.593" y1="-430.9714" x2="-1278.283" y2="-430.9714" gradientTransform="matrix(1 0 0 1 1771.9199 962.665)">
				<stop  offset="0" style="stop-color:#F120A2"/>
				<stop  offset="1" style="stop-color:#417DC0"/>
			</linearGradient>
			<path fill="url(#SVGID_2_)" d="M427.263,593.735c8.988-1.479,17.979-2.966,26.975-4.447c9.667-1.596,14.833,2.767,23.072,7.497
				c19.164,11.016,15.071-22.03,15.521-33.336c0.597-15.059,3.666-32.543-8.022-44.403c-12.81-12.996-32.826-20.779-48.552-29.643
				c-13.53-7.625-31.11-22.373-46.549-24.826c-19.424-3.087-13.479,32.2-13.664,42.946c-0.354,21.058-0.887,30.564,18.278,41.577
				C403.082,554.133,418.669,595.841,427.263,593.735C438.054,591.959,424.741,594.354,427.263,593.735z"/>
		</g>
		<path id="_R_G_L_8_G_D_1_P_0" fill="#ED2092" d="M396.39,487.21c0.34,5.521-0.431,10.61,5.22,13.7
			c9.189,5.04,18.37,10.08,27.56,15.12c9.19,5.05,18.37,10.09,27.561,15.13c2.789,1.53,19.979,13.18,21.199,8.81
			c4.36-15.529-20.539-22.399-31.02-28.319c-9.32-5.261-18.65-10.54-27.97-15.801C416.799,494.64,395.78,481.37,396.39,487.21
			C396.75,492.97,396.16,485.04,396.39,487.21z"/>
		<path id="_R_G_L_8_G_D_2_P_0" fill="#ED2092" d="M392.75,515.7c0.18,17.939,23.59,23.779,37.38,31.35
			c9.19,5.04,18.37,10.08,27.561,15.12c3.96,2.17,16.37,12.96,16.97,3.78c0.97-15.061-29.311-24.641-40.7-31.07
			c-8.38-4.74-16.76-9.479-25.149-14.21C407.259,519.79,392.099,509.87,392.75,515.7C392.81,521.26,392.509,513.531,392.75,515.7z"
			/>
		<path id="_R_G_L_8_G_D_3_P_0" fill="#302267" d="M391.63,522.16c0.351,5.52-0.43,10.6,5.23,13.7
			c9.18,5.04,18.37,10.08,27.55,15.119c9.189,5.041,18.37,10.08,27.56,15.12c2.8,1.54,19.98,13.19,21.2,8.82
			c4.36-15.53-20.54-22.399-31.01-28.32c-9.33-5.27-18.66-10.54-27.98-15.81C412.04,529.59,391.019,516.321,391.63,522.16
			C391.99,527.92,391.4,519.98,391.63,522.16z"/>
		<path id="_R_G_L_8_G_D_4_P_0" fill="#302267" d="M395.259,493.67c0.21,4.14-0.77,9.49,3.01,12.311
			c7.971,5.92,18.011,10.06,26.711,14.84c9.8,5.37,19.6,10.75,29.399,16.13c2.92,1.6,21.771,14.14,22.64,9.02
			c2.631-15.449-20.229-21.649-31.229-27.859c-9.32-5.271-18.649-10.54-27.97-15.811C415.64,501.08,394.71,487.79,395.259,493.67
			C395.39,496.17,395.06,491.5,395.259,493.67z"/>
	</g>
	<g id="_R_G_L_7_G">
		<g id="SPLINE_99_">
			
				<linearGradient id="SVGID_3_" gradientUnits="userSpaceOnUse" x1="-690.8259" y1="-625.5281" x2="-1120.5745" y2="-625.5281" gradientTransform="matrix(1 0 0 1 1771.9199 962.665)">
				<stop  offset="0" style="stop-color:#F120A2;stop-opacity:0.8"/>
				<stop  offset="1" style="stop-color:#417DC0;stop-opacity:0.8"/>
			</linearGradient>
			<path fill="url(#SVGID_3_)" d="M1059.063,341.739C934.871,270.161,810.349,199.128,686.8,126.445
				c-9.393-5.521-18.782-11.043-28.089-16.706c-2.748-1.672-10.92-4.377-5.612-7.395c10.233-5.813,28.951,4.15,38.123,8.164
				c21.046,9.203,41.167,20.564,60.977,32.146c33.708,19.703,65.94,41.828,99.73,61.354c39.188,22.646,78.372,45.309,117.56,67.956
				c18.906,10.927,37.813,21.854,56.719,32.78c15.339,8.863,40.203,17.48,50.502,32.521c4.341,6.333,4.446,14.205,4.371,21.594
				c-0.134,13.097-0.229,26.188-0.291,39.289c-0.141,31.337-0.289,62.674-0.431,94.012c-0.062,13.503-0.084,27.007-0.182,40.511
				c-0.069,9.687-0.354,21.613-6.813,29.511c-3.054,3.729-8.209,10.92-13.429,11.507c-5.428,0.606,3.784-13.937,4.196-16.007
				c4.795-24.29,0.419-52.459,0.434-77.156c0.014-21.853-0.942-43.877,0.751-65.675c1.187-15.255,2.41-30.6,1.809-45.906
				c-0.258-6.541-0.71-13.355-2.774-19.613c-2.073-6.271-5.642-6.84-10.476-10.638
				C1054.823,339.441,1060.003,342.198,1059.063,341.739C1046.615,334.566,1062.951,343.644,1059.063,341.739z"/>
		</g>
		<g id="SPLINE_44_">
			
				<linearGradient id="SVGID_4_" gradientUnits="userSpaceOnUse" x1="-690.157" y1="-781.8855" x2="-1119.5305" y2="-781.8856" gradientTransform="matrix(1 0 0 1 1771.9199 962.665)">
				<stop  offset="0" style="stop-color:#F120A2;stop-opacity:0.8"/>
				<stop  offset="1" style="stop-color:#417DC0;stop-opacity:0.8"/>
			</linearGradient>
			<path fill="url(#SVGID_4_)" d="M652.406,38.652c25.684-0.34,55.055,17.546,76.668,29.871
				c38.813,22.126,77.15,45.115,115.723,67.658c39.723,23.22,79.434,46.454,119.164,69.658
				c19.308,11.274,38.61,22.555,57.904,33.854c12.466,7.301,26.053,14.85,34.313,27.146c6.705,9.979,8.524,22.09,9.137,33.856
				c0.281,5.438-2.964,26.688,2.235,29.505c17.867,9.688,14.168-31.953,13.314-40.709c-3.104-32.028-28.122-50.187-54.225-64.583
				c-36.998-20.409-73.296-41.763-109.582-63.413C862.01,128.653,806.771,96.021,751.237,64.01
				c-18.354-10.581-36.81-21.271-55.996-30.293C677.418,25.336,669.447,32.513,652.406,38.652
				C671.716,38.399,651.715,38.902,652.406,38.652z"/>
		</g>
		<g id="SPLINE_97_">
			
				<linearGradient id="SVGID_5_" gradientUnits="userSpaceOnUse" x1="-1127.7146" y1="-619.3225" x2="-704.5852" y2="-619.3225" gradientTransform="matrix(1 0 0 1 1771.9199 962.665)">
				<stop  offset="0" style="stop-color:#F120A2"/>
				<stop  offset="1" style="stop-color:#417DC0"/>
			</linearGradient>
			<path fill="url(#SVGID_5_)" d="M1066.873,356.72c-0.2,44.021-1.127,88.032-1.438,132.054c-0.172,24.39,6.182,53.122-3.438,76.295
				c-11.393,27.438-42.123,15.381-61.359,4.578c-26.298-14.771-50.106-33.646-76.149-48.941
				c-75.387-44.283-150.353-89.407-226.573-132.226c-31.237-17.553-50.76-38.142-53.271-75.292
				c-1.287-19.021,0.621-38.051,1.163-57.063c0.655-23.057-0.005-46.207-0.087-69.271c-0.079-22.346-1.771-44.876-1.385-67.188
				c0.084-4.761-0.688-15.825,6.688-14.738c8.963,1.319,17.668,8.252,24.938,13.207c54.893,37.418,115.822,67.746,173.429,100.856
				c41.769,24.011,83.595,47.756,125.881,70.836c14.828,8.096,29.516,16.471,44.392,24.474
				C1035.071,322.594,1067.227,335.195,1066.873,356.72"/>
		</g>
		<path id="_R_G_L_7_G_D_0_P_0" fill="#524099" d="M995.699,411.211c-5.33-3.11-11.229-5.091-16.359-8.57
			c-6.66-4.53-4.44-8.141-6.54-14.87c-2.341-7.51-14.021-11.64-20.091-15.33c-10.229-6.229-20.459-12.47-30.699-18.7
			c-5.92-3.6-13.86-5.56-16.43-12.77c-1.621-4.57,0.239-8.11-4.131-11.561c-15.109-11.91-33.779-19.22-50.21-29
			c-11.92-7.1-11.09-19.35-21.489-26.93c-5.44-3.96-11.44-7.05-17.261-10.36c-7.55-4.3-8.229-5.859-9.95-14.08
			c-0.899-4.25-6.869-5.72-10.01-7.859c-5.189-3.551,1.29-11.65-4.39-14.841c-5.31-2.989-39.431-18.779-34.44-24.569
			c5.91-6.87,32.26,12.93,39.04,16.91c6.591,3.88,1.12,8.14,2.641,13.75c1.399,5.14,10.17,3.899,10.92,9.729
			c1.59,12.44,8.659,15.15,19.609,21.24c4.08,2.27,9.58,4.81,12.021,8.97c1.46,2.51,1.66,5.68,1.83,8.49
			c0.29,5.13,7.279,8.04,10.93,10.32c15.26,9.479,31.36,17.54,46.68,26.89c3.69,2.25,7.271,4.68,10.57,7.48
			c2.52,2.14,0.92,6.06,1.77,8.8c2.181,6.95,14.57,11.58,20.11,15.02c8.75,5.45,17.5,10.891,26.25,16.341
			c5.66,3.52,15.73,7.319,19.37,13.239c3.26,5.29-1.31,11.08,4.84,15.221c5.061,3.39,13.92,4.729,17.561,9.81
			C999.659,406.5,997.67,412.551,995.699,411.211C989.39,407.53,996.99,412.091,995.699,411.211z"/>
		
			<linearGradient id="SVGID_6_" gradientUnits="userSpaceOnUse" x1="-1127.8992" y1="-780.2561" x2="-704.7458" y2="-780.2561" gradientTransform="matrix(1 0 0 1 1771.9199 962.665)">
			<stop  offset="0" style="stop-color:#F120A2"/>
			<stop  offset="1" style="stop-color:#417DC0"/>
		</linearGradient>
		<path fill="url(#SVGID_6_)" d="M1066.156,327.26c0.077-16.806,3.027-34.619-3.016-50.79
			c-5.946-15.914-21.267-26.539-35.295-34.852c-34.386-20.37-70.088-38.596-104.529-58.966
			C859.866,145.127,795.23,109.233,733.648,68.72c-19.047-12.527-40.086-27.04-62.769-31.798
			c-26.597-5.578-27.663,19.323-26.602,39.802c1.28,24.592,25.786,33.365,45.549,43.117c27.938,13.785,54.742,28.528,81.767,44.147
			c61.299,35.434,122.597,70.864,183.896,106.295c25.115,14.519,50.566,28.563,75.202,43.883c7.815,4.859,15.747,9.805,24.21,13.473
			c0.795,0.345,16.283,2.935,11.28-1.576C1066.265,326.143,1066.239,328.778,1066.156,327.26
			C1066.239,308.621,1066.281,329.541,1066.156,327.26z"/>
		<path id="_R_G_L_7_G_D_1_P_0" fill="#F120A2" d="M995.409,410.33c-6.42-3.76-13.079-7.109-19.239-11.279
			c-5.5-3.721,0.16-12.98-7.66-17.73c-15.48-9.38-30.93-18.83-46.391-28.24c-5.689-3.46-11.96-5.97-13.539-13.029
			c-2.08-9.271-6.271-11.11-14.41-15.971c-16.59-9.92-33.7-19.229-50.04-29.5c-5.87-3.68-3.561-8.35-6.45-13.6
			c-2.98-5.42-9.59-8.28-14.66-11.29c-5.04-2.99-10.41-5.97-15.02-9.61c-5.69-4.49-1.091-11.359-6.561-15.18
			c-4.31-3-9.77-4.18-10.27-10.36c-0.62-7.729-3.561-10.12-10.58-13.52c-7.46-3.61-14.59-7.84-21.811-11.9
			c-8.79-4.95-8.17,1.26-1.479,5.04c9.609,5.41,31.489,11.54,30.88,24.25c-0.271,5.8,5.05,7.63,9.24,9.98
			c6.689,3.75,1.05,10.899,6.42,14.569c8.52,5.78,30.56,14.301,32.119,25.58c2.03,14.65,27.58,23.19,39.19,30.131
			c7.21,4.31,14.42,8.619,21.63,12.93c8.9,5.31,4.471,8.78,8.521,16.33c3.06,5.7,15.85,10.569,21.149,13.81
			c8.82,5.37,17.66,10.71,26.48,16.08c5.31,3.23,12.35,5.94,16.55,10.641c3.92,4.43-0.61,12.26,5.03,15.56
			c5.56,3.26,11.02,6.71,16.479,9.87C995.42,416.45,999.35,412.22,995.409,410.33z"/>
		<path id="_R_G_L_7_G_D_2_P_0" fill="#524099" d="M737.56,200.49c-18.03-10.93-35.78-22.88-54.5-32.6
			c-5.64-2.931-27.73-13.38-17.57-23.63c3.49-3.521,46.96,26.21,52.521,29.529c5.5,3.28,19.38,8.17,21.149,14.98
			c0.8,3.09,1.921,13.83-3.47,10.58C736.32,199.73,736.94,200.11,737.56,200.49C721.38,190.68,739.02,201.38,737.56,200.49z"/>
		<path id="_R_G_L_7_G_D_3_P_0" fill="#524099" d="M734.06,232.98c-21.33-12.92-43.08-25.12-64.47-37.87
			c-6.801-4.05-11.74-9.63-8.051-17.98c1.931-4.369,14.061,5.521,16.221,7c13.449,9.21,28.1,16.471,42.13,24.681
			c5.6,3.279,11.569,6.95,15.729,12.04c1.45,1.779,2.84,4.01,2.711,6.41c-0.11,1.869-5.45,8.18-5.711,4.46
			C732.58,231.21,735.959,231.85,734.06,232.98C717.94,223.22,736.36,231.61,734.06,232.98z"/>
		<path id="_R_G_L_7_G_D_4_P_0" fill="#524099" d="M733.28,264.79c-18.81-11.39-37.649-22.76-56.45-34.18
			c-3.979-2.42-16.119-6.94-16.75-12.63c-1.04-9.69,2.65-11.09,10.16-6.311c16.47,10.511,33.351,20.351,50.12,30.391
			C727.58,246.38,744.38,256.48,733.28,264.79C718.82,256.04,733.84,264.37,733.28,264.79z"/>
		<path id="_R_G_L_7_G_D_6_P_0" fill="#5E5CA9" d="M756.52,145.54c10.48-6.63-5.37-31.76-15.89-25.109
			C730.15,127.06,746,152.19,756.52,145.54z"/>
		<path id="_R_G_L_7_G_D_7_P_0" fill="#5AB0C8" d="M689.08,106.18c10.479-6.631-5.36-31.761-15.881-25.11
			C662.72,87.7,678.56,112.83,689.08,106.18z"/>
		<path id="_R_G_L_7_G_D_8_P_0" fill="#477AB5" d="M724.55,126.44c10.479-6.63-5.36-31.76-15.88-25.101
			C698.19,107.97,714.03,133.09,724.55,126.44z"/>
		<path id="_R_G_L_7_G_D_9_P_0" fill="#91D1B4" d="M684.9,109.31c10.48-6.63-5.36-31.761-15.88-25.11
			C658.539,90.83,674.38,115.96,684.9,109.31z"/>
		<path id="_R_G_L_7_G_D_10_P_0" fill="#4C59A8" d="M720.369,129.57c10.48-6.63-5.359-31.76-15.88-25.1
			C694.01,111.1,709.85,136.22,720.369,129.57z"/>
		<path id="_R_G_L_7_G_D_11_P_0" fill="#7E5FA9" d="M752.33,148.67c10.479-6.63-5.36-31.76-15.881-25.109
			C725.97,130.19,741.82,155.32,752.33,148.67z"/>
	</g>
	<g id="_R_G_L_6_G">
		<g id="_R_G_L_6_G_D_0_P_0_G_0_T_0">
			<path id="_R_G_L_6_G_D_0_P_0" fill="#86A8DB" d="M6.48-30c6.12,3.49,12.26,6.94,18.34,10.5c6.28,3.681,12.62,7.2,18.87,10.92
				C50.46-4.55,61.13-2.27,49.83,4C37.84,10.65,25.87,17.35,13.91,24.06C9.32,26.64,3.1,31.69-1.85,32.58
				c-4.51,0.8-17.02-8.59-21.64-11.189c-9.28-5.25-18.57-10.471-27.85-15.7c-9.79-5.521,2.79-7.67,9.06-11.15
				c4.66-2.59,9.33-5.18,14-7.77C-22.41-16.5,1.42-33.38,6.48-30C9.01-28.55,5.18-30.87,6.48-30z"/>
		</g>
		<path id="_R_G_L_6_G_D_1_P_0" fill="#3E6DB5" d="M468.459,221.15C461.17,217.04,414.92,189.6,415,195.1
			c0.2,16.68,1.14,93.949,1.42,115.91c0.189,15.05-4.71,33.37,10.76,41.81c7.71,4.21,15.189,8.58,22.75,13.061
			c5.37,3.18,10.74,6.369,16.109,9.56c2.62,1.56,1.961-11.88,1.961-12.41C468.07,345.131,469.65,221.78,468.459,221.15z"/>
		<path id="_R_G_L_6_G_D_2_P_0" fill="#16489A" d="M528.159,188.79c-16.109,9.32-59.529,33.561-59.529,33.561
			s-0.551,106.79-0.671,146.93c-0.029,11.62,6.98,3.28,13.7-0.58c5.29-3.029,10.58-6.069,15.87-9.109
			c8.2-4.7,16.391-9.4,24.58-14.101c9.87-5.67,6.21-16.34,6.25-26.93C528.46,296.37,529.22,188.38,528.159,188.79z"/>
		<g id="_R_G_L_6_G_D_3_P_0_G_0_T_0">
			<path id="_R_G_L_6_G_D_3_P_0" fill="#E188B8" d="M-1.99-28.91c-9.43,5.721-18.87,11.431-28.3,17.15
				C-32.92-10.17-54.51,0.48-48.84,3.78c9.02,5.24,18.029,10.49,27.05,15.74c4.37,2.54,17.51,13.64,22.569,10.72
				C10.35,24.73,19.92,19.21,29.5,13.69c3.46-2,25.01-10.9,17.58-15.4C40.64-5.6,3.71-33.16-1.99-28.91
				C-17.71-19.39-0.38-30.11-1.99-28.91z"/>
		</g>
		<path id="_R_G_L_6_G_D_4_P_0" fill="#B61D8A" d="M384.54,418.48c0.109,14.92-11.71,1.06-18.94-3.75
			c-5.39-3.59-30.97-16.04-31.12-22.54c-0.58-25.83-0.92-51.7-1.52-77.54c-0.34-14.81,51.529,17.16,51,24.29
			C384.17,367.22,384.35,391.97,384.54,418.48z"/>
		<path id="_R_G_L_6_G_D_5_P_0" fill="#812369" d="M386.12,425.921c10.569-5.971,21.13-11.94,31.689-17.9
			c6.03-3.41,12.07-6.81,18.1-10.22c4.221-2.391-0.63-91.99-1.88-91.25c-11.79,6.89-47.189,25.85-50.26,29.85
			C380.8,340.26,382.84,427.711,386.12,425.921C402.72,416.54,384.28,426.921,386.12,425.921z"/>
		<g id="_R_G_L_6_G_D_6_P_0_G_0_T_0">
			<path id="_R_G_L_6_G_D_6_P_0" fill="#6658A6" d="M0-31.37c-9.04,5.44-18.08,10.881-27.12,16.32
				C-30.26-13.17-55.14-0.51-49.44,2.92c9.41,5.66,18.811,11.32,28.21,16.98c9.12,5.479,17.57,15.04,27.78,9.2
				C11.73,26.14,55.14,3.62,53.36,0.13C50.01-6.47,34.38-12.52,28.14-16.41C23.91-19.06,4.59-34.94,0-31.37
				C-16.58-21.4,1.64-32.65,0-31.37z"/>
		</g>
		<path id="_R_G_L_6_G_D_7_P_0" fill="#4A3896" d="M310.71,411.881c0.08,10.64,0.149,21.27,0.229,31.899
			c0.021,2.29,0.19,24.86-1.779,23.561c-7.811-5.2-15.62-10.4-23.431-15.601c-4.58-3.05-24.56-12.54-24.729-18.25
			c-0.3-9.41-0.17-18.899-0.391-28.33c-0.08-3.67-0.109-23.66,0.431-24.069C263.25,383.75,306.88,409.5,310.71,411.881z"/>
		<path id="_R_G_L_6_G_D_8_P_0" fill="#2A2568" d="M309.38,412.35c0.109,9.21,0.21,18.43,0.32,27.649
			c0.079,6.53-2.69,22.23,1.05,27.681c1.93,2.81,46.27-24.57,51.68-27.62c5.12-2.89,1.63-21.05,1.5-26.03
			c-0.14-5.569,0.15-32.83-1.59-32.04C358.75,383.631,315.38,409,309.38,412.35z"/>
	</g>
	<g id="_R_G_L_5_G">
		<path id="_R_G_L_5_G_D_0_P_0" fill="#3C7FC2" d="M569.49,700.47c-2.88-19.63-7.17-39.94-7.069-59.851
			c0.02-3.77-1.78-21.25,3.55-22.479c3.39-0.79,7.16,2.57,9.689,4.189c5.53,3.551,11.351,3.74,17.73,3.301
			c6.29-0.44,18.56-5.91,24.43-2.9c6.11,3.13,7.08,17.21,7.62,22.92c2.03,21.46-0.13,43.67-2.54,64.98
			c-2.2,19.399,4.78,39.909,3.83,59.779c-0.32,6.811,0.61,16.721-2.33,23.061c-3.13,6.76-15.84,5.88-19.37-0.09
			c-3.35-5.65-1.83-16.53-2.43-22.86c-1.1-11.63-1.49-23.35-2.28-35c-0.68-10.16-1.22-20.01-2.71-30.1
			c-0.99-6.73,0.61-18.721-2.09-24.58c0.59,1.279-3.26,13.939-3.46,16.27c-0.87,10.16,1.82,19.7,2.55,29.771
			c0.601,8.29,0.96,16.64,0.25,24.93c-0.53,6.31,1.7,15.59-3.5,20.5c-4.07,3.84-11.39,3.21-16.24,1.52
			c-7.949-2.77-4.76-12.3-4.83-18.649C570.079,737.03,572.21,718.48,569.49,700.47C569,697.131,569.99,703.77,569.49,700.47z"/>
		<path id="_R_G_L_5_G_D_1_P_0" fill="#3C7FC2" d="M545.289,570.16c3.23-0.31,13.051-3.27,15.87-0.729
			c2.63,2.38,0.69,11.6,0.67,14.609c0,4.32-13.79,4.78-15.34,0.761C545.13,581.051,538.03,570.77,545.289,570.16
			C549.84,569.73,545.24,570.16,545.289,570.16z"/>
		<path id="_R_G_L_5_G_D_2_P_0" fill="#31266B" d="M509.459,582.78c9.311,5.561,18.61,11.12,27.921,16.681
			c2.029,1.239,2.939-1.131,2.37-2.75c-1.171-3.381-2.32-6.761-3.431-10.15c-1.42-4.34-2.75-8.69-4.05-13.061
			c-0.83-2.829-4.36-10.1-2.16-11.64c2.15-1.479,3.75,5.601,4.49,7.62c0.7,1.96,1.4,3.92,2.1,5.88c2.95,8.25,4.19,25.58,13.83,23.7
			c2.3-0.45-7.47-23.04-9.35-27.78c-2.84-7.109-4.65-13.81-12.11-17.54c-2.39-1.189-4.689-2.54-7.01-3.859
			c-6.07-3.65-28.33-18.33-24.76-8.4c2.96,8.25,4.659,17.28,6.979,25.75C505.289,571.051,505.619,581.051,509.459,582.78
			C518.77,588.341,508.449,582.33,509.459,582.78z"/>
		<path id="_R_G_L_5_G_D_3_P_0" fill="#DCDCE9" d="M590.159,624.89c-1.22-14.16-2.569-28.92-1.77-43.09
			c0.97-17.03,9.75-31.83,17.31-46.721c6.71-13.25-0.739-19.109-15.77-16.54c-10.851,1.86-12.61,14.381-15.061,23.46
			c-3.43,12.761-4.899,25.761-5.649,38.9c-0.45,8.12-0.74,16.26-0.94,24.39c-0.1,3.69-0.18,7.37-0.24,11.051
			C567.89,624.68,590.97,629.461,590.159,624.89C590.119,624.461,590.46,626.6,590.159,624.89z"/>
		<path id="_R_G_L_5_G_D_4_P_0" fill="#77787D" d="M526.97,563.551c3.74,11.88,7.479,23.76,11.22,35.64
			c-0.07-0.229-24.16-13.68-24.61-13.43c-0.75,0.42,3.12,9.84,4.011,11.489c1.71,3.181,8.239,5.271,11.18,6.98
			c2.39,1.36,20.69,13.5,22.24,12.13c1.89-1.67-10.7-30.82-11.86-33.97c-0.2-0.561-0.41-1.12-0.61-1.69
			c-2.1-5.97-4.289-11.92-6.439-17.88C531.409,560.91,526.34,562.15,526.97,563.551C528.67,568.97,526.61,562.75,526.97,563.551z"/>
		<path id="_R_G_L_5_G_D_5_P_0" fill="#21120D" d="M623.73,795.99c-7.59,4.21-15.9-4.04-16.33,5.891c-0.1,2.52-2.66,5.09-3.649,7.38
			c-0.82,1.87-1.48,3.859-1.811,5.87c-0.92,5.52,0.3,8.79,5.89,9.63c0.551,0.09,1.101,0.14,1.66,0.17
			c5.86,0.31,14.05-3.431,15.88-9.49C626.25,812.551,624.27,795.61,623.73,795.99C623.69,796.01,624.49,795.461,623.73,795.99z"/>
		<path id="_R_G_L_5_G_D_6_P_0" fill="#6A6874" d="M582.19,583.79c-1.12-9.899-1.479-19.939-0.479-29.88
			c0.43-4.17,0.29-11.39,2.75-15.01c2.859-4.2,0.21-9.74-4.21-4.54c-0.761,0.87,0.25,2.21,0.579,3.21
			c2.08,6.32-4.25,20.311-5.09,26.98c-0.739,5.76-1.09,11.84-0.12,17.64c0.24,1.71,0.631,3.41,1.091,5.07
			C578.18,592.69,582.69,588.54,582.19,583.79C581.65,579.07,582.19,583.81,582.19,583.79z"/>
		<path id="_R_G_L_5_G_D_7_P_0" fill="#21120D" d="M592.02,772.961c-5.59,2.63-11.99,2.72-17.71,0.279
			c0.1,0.05-4.81,6.271-6.23,7.391c-3.989,3.149-23.88,13.52-12.689,17.1c6.13,1.96,12.7-0.27,17.92-3.58
			c5.02-3.18,7.479-4.96,13.19-5.9c1.489-0.25,2.93-0.779,4.199-1.6C595.67,783.89,593.23,772.18,592.02,772.961
			C591.99,772.97,592.96,772.35,592.02,772.961z"/>
		<path id="_R_G_L_5_G_D_8_P_0" fill="#F9F3F2" d="M597.5,525.54c4.67-3.899,7.579-9.01,11.25-3.18c0.659,1.04,0.6,2.351,0.43,3.53
			c-0.59,3.85-2.65,7.26-5.641,9.76c-2.81,2.37-6.289,3.99-9.899,4.65c-6.18,1.12-4.01-7.88-9.37-7.87
			c-1.97,0.01-5.53,4.88-6.65,2.81c-1.819-3.46,4.24-16.84,5.9-12.68c0.9,2,0.05,4.56,1.59,6.32
			C588.69,532.95,594.46,528.07,597.5,525.54z"/>
		<path id="_R_G_L_5_G_D_9_P_0" fill="#A8C6E0" d="M608.78,524.591c-2.16,14.83-13.029,26.79-17.45,41
			c-3.59,11.58-2.989,22.96-2.63,34.89c0.431,14.72,1.53,29.44,3.971,43.96c1.949,11.521,9.97,15.69,21.659,11.67
			c5.57-1.91,15.78-4.37,14.9-11.88c-0.229-2.01-0.7-3.97-1.31-5.89c-5.41-16.66-11.631-31.811-9-50.221
			c1.72-11.97,7.439-22.439,10.939-33.89c2.311-7.57,4.92-14.56-1.859-19.89C626.85,533.44,608.92,521.36,608.78,524.591
			C608.76,524.711,608.869,522.69,608.78,524.591z"/>
		<path id="_R_G_L_5_G_D_10_P_0" fill="#A8C6E0" d="M581.55,516.23c-15.73-21.61-20.11,31.65-20.11,32.52
			c0.14,27.561-2.51,54.921-2.37,82.421c0.01,1.609,2,14.75,7.21,11.229c2.221-1.51,1.19-8.76,1.271-11.06
			c0.31-7.601,0.55-15.19,0.729-22.79c0.431-16.44,0.67-32.931,3.04-49.23C571.949,555.06,584.07,518.841,581.55,516.23
			C581.52,516.18,583.82,518.58,581.55,516.23z"/>
		<path id="_R_G_L_5_G_D_11_P_0" fill="#ECA07B" d="M577.78,600.02c-4.979-1.58-10.149-1.39-15.27-0.8
			c-1.7,0.189-13.91,1.279-10.13,3.859c4.13,2.82,6.979-1.5,8.14,4.301c0.36,1.47,1.1,2.729,2.12,3.81
			c0.91,0.95,2.01,1.72,3.21,2.271c1.67,0.76,3.11,0.819,5.01,0.5c8.07-1.37,10.54,0.05,9.141-7.36
			C579.53,604.06,580.77,601.04,577.78,600.02z"/>
		<path id="_R_G_L_5_G_D_12_P_0" fill="#ECA07B" d="M518.789,587.381c-7.949-8.471-14.119-0.511-5.199,4.869
			C517.35,594.57,522.15,590.99,518.789,587.381z"/>
		<g id="_R_G_L_5_G_D_13_P_0_G_0_T_0" transform=" translate(595.825, 523.972)">
			<g id="_R_G_L_5_G_D_13_P_0_G_1_T_0" transform=" translate(596.197, 488.119) translate(0, 0)">
				<path id="_R_G_L_5_G_D_13_P_0" fill="#1D130E" d="M-22-9.95c1.75,6.36,7.22,7.34,13.1,7.71c2.73,0.17,9.92-0.91,10.03,3.16
					c0,2.87-1.06,9.81,0.681,12.47c2.39,3.66,5.209-6.02,7.619-5.479c6.98,1.93-4.05,11.189-0.71,13.88
					c3.13,2.52,10.88-14.101,11.38-15.7c2.48-8.01,1.75-17.25-4.6-23.29c-6.46-6.14-15.811-7.11-23.49-2.82
					C-9.71-19.06-22.58-11.37-22-9.95C-21.79-9.19-22.361-10.829-22-9.95z"/>
			</g>
		</g>
		<g id="_R_G_L_5_G_D_14_P_0_G_0_T_0" transform=" translate(595.825, 523.972)">
			<g id="_R_G_L_5_G_D_14_P_0_G_1_T_0" transform=" translate(589.887, 507.466) translate(0, 0)">
				<path id="_R_G_L_5_G_D_14_P_0" fill="#ECA07B" d="M-14.18-22.36c-0.6,7.771-3.56,24.41,0.21,31.37
					c4.21,7.721,8.44-2.5,8.4,10.641c-0.01,5.85,7.44,2.68,10.149,0.79c2.5-1.73,4.711-3.87,7.011-5.851
					c1.05-0.91,2.39-1.79,3.27-2.87c1.07-1.27-2.52-10.01-0.319-13.3c0.77-1.15,1.649-2.08,2.17-3.43
					c0.59-1.561,1.029-3.471-0.9-4.48c-5.57-2.92-4.23,4.59-5.49,5.03c-5.85,2.07-0.54-12.75-3.77-14.7
					c-1.98-1.229-5.521-0.899-7.87-1.16C-4.98-20.719-13.91-25.5-14.18-22.36z"/>
			</g>
		</g>
		<path id="_R_G_L_5_G_D_15_P_0" fill="#3C7FC2" d="M634.26,606.58c6.229-9.109,4.59-21.27,4.439-31.76
			c-0.14-9.32,2.551-36.76-10.43-39.01c-8.44-1.46-12.69,11.979-13.83,18.57c-0.6,3.68-0.74,7.399-0.62,11.13
			c0.22,7.229,4.931,20.75,2.12,27.39C614.039,597.39,628.03,615.69,634.26,606.58z"/>
		<path id="_R_G_L_5_G_D_16_P_0" fill="#3C7FC2" d="M583.94,613.41c7.84-0.569,16.75-0.859,24.6-0.52
			c9.29,0.39,18.99,3.18,25.23-5.93c6.23-9.101-15.52-20.311-18.33-13.671c-1.9,4.48-26.28,3.551-31.06,3.931
			C576.28,597.87,579.26,614.43,583.94,613.41C587.56,613.14,582.11,613.81,583.94,613.41z"/>
	</g>
	<g id="_R_G_L_4_G">
		<path id="_R_G_L_4_G_D_0_P_0" fill="#4686C6" d="M680.35,518.03c0.64,4.72,7.45,3.74,6.65-1.31c-0.011-0.09-0.021-0.17-0.03-0.26
			c0.42,3.149,2.53,15.369-3.8,13.76C672.59,527.48,683.65,521.43,680.35,518.03C680.35,518.051,680.1,517.77,680.35,518.03z"/>
		<path id="_R_G_L_4_G_D_1_P_0" fill="#4686C6" d="M715.5,508.881c-2.931,4.8-9.561-1.91-12.98-3.061
			c-1.65-0.82-3.439-1.59-4.77-2.92c-0.69-0.62-1.311-1.34-1.83-2.11c-3.131-4.479-5.25,5.49,0.039,7.91
			c-1.039-0.479,32.461,14.99,27.73,4.59C722.77,511.7,716.53,506.19,715.5,508.881z"/>
		<path id="_R_G_L_4_G_D_2_P_0" fill="#7E666A" d="M679.81,302.93c-1.12-9.45-3.521-18.49-2.12-27.971c0.22-2.06,0.6-4.109,1.15-6.1
			c2.869-10.74,12.369-13.7,22.699-11.78c-3.1-0.58,19.771,8.67,9.791,11.931c-1.061,0.35-1.341-1.95-2-1.7
			c-4.2,1.64-3.891,7.34-10.511,7.58c-4.11,0.22-4.56,4.62-8.38,5.729c-2.55,0.75-6.609-3.17-7.89,1.771
			c-0.86,3.3,2.85,4.189,4.909,5.439c0.57,0.351,1.131,0.79,1.48,1.38c1.25,2.12,0.46,5.261,0.9,7.7
			C690.95,302.461,681.02,308.91,679.81,302.93C679.56,300.83,680.01,303.93,679.81,302.93z"/>
		<path id="_R_G_L_4_G_D_3_P_0" fill="#FFFEFE" d="M675.62,308.5C665,314.85,653.289,324.93,653,338.35
			c-0.021,1.189,0.05,2.39,0.229,3.57c0.79,5.31,3.41,11.54,7.04,15.54c1.85,2.05,15.45,5.27,14.31,3.21
			c-1.09-1.98-4.71-3.061-2.229-6.011c2.05-2.43,10.8-1.93,3.72-6.63c-1.319-0.93-2.649-1.84-3.93-2.83
			c-1.43-1.09-2.851-2.04-4.5-2.77c-7.12-3.13,0.26-7.76,4.29-10.42c4.87-3.05,6.22-3.641,8.4,2.1c1.43,3.84,2.52,7.82,3.27,11.851
			c1.43,7.829,5.31,9.18,13.01,9.899c4.95,0.46,9.92-0.38,14.49-2.31c1.32-0.551,2.609-1.181,3.859-1.87
			c3.261-1.79,2.121-4.59,1.28-7.86c-1.25-4.81-0.21-7.34,4.19-8.72c3.189-1.01,0.07,9.46,2.77,11.1
			c3.86,2.32,7.11-15.97,5.94-21.72c-0.7-3.45-1.58-6.88-2.44-10.3c-0.71-2.86-1.46-5.74-2.71-8.431c-1-2.21-7.729-9.81-6.72-4.13
			c2.23,12.49-6.22,21.78-17.61,18.87C694.03,319,675.26,308.711,675.62,308.5C667.46,313.381,676.15,308.2,675.62,308.5z"/>
		<path id="_R_G_L_4_G_D_4_P_0" fill="#F3B9B7" d="M705.65,484.07c2.09-11.399,4.19-22.81,6.271-34.22
			c0.729-3.69,3.26-9.36,2.14-13.07c0.06,0.19-9.021,4.13-10.479,4.45c-6.91,1.54-5.32,2.54-4.841,10.54
			c0.91,15.02-2.399,29.51-3.729,44.37c-0.67,7.729,8.399,10.03,14.07,13.359c1.89,1.12,6.129,2.261,6.72-1.119
			c0.229-1.29-4.341-4.351-5.16-5.011C702.8,496.9,704.11,492.671,705.65,484.07C707.59,473.52,705.64,484.16,705.65,484.07z"/>
		<path id="_R_G_L_4_G_D_5_P_0" fill="#F0B8B9" d="M709.31,266.89c-3.4,8.63-9.88,4.37-13.15,8.58c-1.75,2.149-3.92,3.859-6.45,4.96
			c-2.159,0.899-4.42-1.79-6.27,0.38c-2.55,2.97,0.3,5.22,2.98,6.45c3.41,1.55,2.699,4.76,2.96,7.859c0,2.061,1.069,5.601-0.96,6.94
			c-6.48,4.32-14.631,5.26-5.94,11.25c6.81,4.68,22.97,12.34,29.17,5.37c2.601-2.931,11.62-20.351,1.4-18.771
			c-1.771,0.28-4.16,0.67-5.091-1.37c-1.6-3.7,5.011-8.97,5.16-13.6C713.25,278.99,713.289,271.7,709.31,266.89
			C708,270.22,709.33,266.91,709.31,266.89z"/>
		<path id="_R_G_L_4_G_D_6_P_0" fill="#D1D3DE" d="M719.62,315.631c0.301,3.979,3.721,6.85,3.7,10.83
			c-0.04,6.869-7.22,5.439-11.899,6.59c-1.49,0.35-2.95,0.859-4.36,1.46c-2.68,1.16-5.14,2.84-7.95,3.729
			c-3.77,1.19-19.52-2.439-17.46-8.979c-2.09,6.64,3.3,14.35,9.79,15.04c8.77,0.939,19.52-6.63,27.77-9.48
			c1.181-0.399,2.271-0.78,3.41-1.49C730.87,328.25,720.23,317.35,719.62,315.631C719.7,316.79,719.49,315.28,719.62,315.631z"/>
		<path id="_R_G_L_4_G_D_7_P_0" fill="#4686C6" d="M681.85,434.171c0.31-3.761,0.48-7.53,0.51-11.301c0.05-16.3-6.8-31.8-6.51-47.8
			c0.189-10.88,4.109-21.63,15.24-18.56c2.689,0.7,5.43,1.189,8.21,1.22c5.729,0.08,11.17-1.77,16-4.77
			c6.26-3.971,8.479,12.649,8.79,16.289c1.1,11.181-2.19,21.83-4.53,32.61c-1.15,4.54-2.11,9.15-2.89,13.771
			c-1.28,7.55,0.84,18.25-6.011,23.31c-5.109,3.68-11.829,3.38-17.659,1.92C690.18,440.171,681.08,437.6,681.85,434.171
			C681.88,433.77,681.41,436.12,681.85,434.171z"/>
		<g id="_R_G_L_4_G_D_8_P_0_G_0_T_0" transform=" translate(726.986, 338.237)">
			<g id="_R_G_L_4_G_D_8_P_0_G_1_T_0" transform=" translate(749.376, 334.992)">
				<path id="_R_G_L_4_G_D_8_P_0" fill="#F2B5BB" d="M-12.65-2.519c-3.971-0.811-4.9,4.279-2.86,6.659
					c3.15,3.66,7.62-0.699,10.69-1.909C-0.46,0.5,1.51,5.59,5.66,6.13c1.25,0.16,11.891-2.16,8.94-3.399C9.85,0.75,7.74-2.7,3.1-4.9
					C-3.03-7.8-7.83-0.849-12.65-2.519C-13.41-2.679-11.85-2.24-12.65-2.519z"/>
			</g>
		</g>
		<g id="_R_G_L_4_G_D_9_P_0_G_0_T_0" transform=" translate(726.986, 338.237)">
			<g id="_R_G_L_4_G_D_9_P_0_G_1_T_0" transform=" translate(736.094, 339.992) translate(0, 0)">
				<path id="_R_G_L_4_G_D_9_P_0" fill="#FFFEFE" d="M-11.18,6.71c3.86,2.32,11.94,0.96,16.62,0.86c4.22-0.09,8.34-0.851,11.05-4.42
					c0.69-0.891,1.23-1.9,1.601-2.95c0.51-1.34-7.79-9.23-7.82-9.22C7.62-7.96,4.95-6.95,2.18-6.269
					C-18.6-4.74-13.89,5.08-11.18,6.71z"/>
			</g>
		</g>
		<path id="_R_G_L_4_G_D_10_P_0" fill="#F3B9B7" d="M699.64,443.131c-4.17,15.58-7.66,31.439-9.89,47.43
			c-1.271,8.68-2.28,17.4-2.971,26.15c-0.37,4.8-0.29,4.489-5.22,4.119c-3.32-0.25-0.7-12.52-0.42-14.34
			c1.649-10.979,0.44-22.39,1.62-33.5c0.35-3.27-0.43-35.68,0.59-36.01C684.209,436.69,699.43,443.68,699.64,443.131z"/>
		<path id="_R_G_L_4_G_D_11_P_0" fill="#EAB6C1" d="M677.09,360.75c-4.15,0.261-8.03-4.89-2.931-7.439
			c2.681-1.34,9.561,3.63,12.55,4.53c3.221,0.97,13.761,8.02,10.65,11.47C689.62,378.08,684.89,360.421,677.09,360.75
			C676.24,360.801,677.1,360.75,677.09,360.75z"/>
	</g>
	<g id="_R_G_L_3_G">
		<path id="_R_G_L_3_G_D_0_P_0" fill="#F7AFB4" d="M232.23,668.32c1.311-1.35,5.82-6.5,7.54-4.05c0.34,0.55,0.72,1.07,1.08,1.6
			c0.89,1.19,1.69,2.04,1.14,3.73c-2.46,7.18-2.569,14.62-2.439,22.12c0.01,0.43,0.41,4.779-0.29,5.779
			C241.14,694.841,226.88,674.51,232.23,668.32C232.28,668.28,232.22,668.341,232.23,668.32z"/>
		<path id="_R_G_L_3_G_D_1_P_0" fill="#FCF8FB" d="M287.28,603.29c-6.43,1.11-26.409-1.949-21.6-11.56
			c0.4-0.71,17.98,3.96,21.14,4.19C288.8,596.06,289.911,602.841,287.28,603.29C286.14,603.49,287.29,603.29,287.28,603.29z"/>
		<path id="_R_G_L_3_G_D_2_P_0" fill="#C67973" d="M228.11,886.27c-0.02-1.07-0.81-13.75,2.37-16.44c1.33-1.14,6.12,2.11,6.99,2.48
			c10.62,4.439,15.95-1.32,18.23-10.43c1.649-6.37,10.76-2.19,11.359,3.159c0.46,3.721-0.72,7.551-2.729,10.65
			C264.411,875.57,228.39,906.381,228.11,886.27C228.09,885.1,228.11,886.301,228.11,886.27z"/>
		<path id="_R_G_L_3_G_D_3_P_0" fill="#C67973" d="M279.23,896.211c3.92,1.609,8.23,2.359,12.38,1.22
			c0.94-0.271,1.841-0.63,2.721-1.07c2.97-1.479,8.92,3.36,12,4.021c5.02,1.08,10.14,1.77,15.189,2.68
			c5.94,1.12,14.351,4.37,9.15,11.51c-7.11,10.03-27.03,5.49-35.87,6.7c-5.271,0.74-10.92,1.979-16.26,0.979
			C268.59,920.301,270.02,891.75,279.23,896.211C279.26,896.22,279.21,896.2,279.23,896.211z"/>
		<path id="_R_G_L_3_G_D_4_P_0" fill="#20130E" d="M268.64,585.98c-3.4-4.81-15.02-11.19-15.99-16.36
			c-2.819-14.909,8.24-26.14,21.011-30.77c4.949-1.8,12.27-4.29,17.609-3.11c5.73,1.271,3.62,11.03,0.38,13.48
			c-2.189,1.66-8.8,2.85-8.18,7.35c0.24,1.71,2.38,3.04,3.31,4.15c1.08,1.27,0.931,13.71,0.341,15.16
			c-0.74,1.81-11.17-9.29-9.101,0.68c0.26,1.09,0.67,2.189,1.3,3.13C282.46,584.47,271.89,590.31,268.64,585.98
			C267.85,584.85,268.65,586,268.64,585.98z"/>
		<path id="_R_G_L_3_G_D_5_P_0" fill="#F7AFB4" d="M297.331,582.131c0.819-3.801-1.431-38.141-8.96-32.74
			c-1.301,0.93-2.431,2.14-3.33,3.46c-2.49,3.66-0.7,5.12,1.64,7.76c1.11,1.24-0.92,15.74,0.06,15.521
			c-3.489,0.81-4.409-6.2-7.899-3.511c-2.5,1.931-0.22,4.9,0.52,6.971c0.811,2.29-0.109,4.449-1.909,5.859
			c0.76-0.609-14.29,3.41-7.65,6.58c1.2,0.59,2.439,1.09,3.7,1.53c3.319,1.15,6.689,1.67,10.149,2.22
			c4.59,0.54,2.07-3.39,5.061-5.52C291.6,588.44,296.451,585.85,297.331,582.131C297.86,579.671,297.32,582.16,297.331,582.131z"/>
		<path id="_R_G_L_3_G_D_6_P_0" fill="#9BC9EC" d="M275.39,793.76c0.08-4.66-2.99-32.86-1.77-33.65c-4.74,3.12-5.21,17.69-6,22.75
			c-1.44,9.22-2.42,18.49-3.7,27.73c-2.521,18.18-7.58,35.989-9.15,54.3c-0.96,11.33-13.85,10.09-21.24,5.49
			c-13.92-8.79-4.29-33.891-2.359-46.98c2.99-20.17,8.399-40.32,8.53-60.79c0.06-9.81-0.551-19.6-0.91-29.41
			c-0.32-8.739-0.391-17.479,0.02-26.22c0.21-4.61,0.351-9.29,0.95-13.87c0.85-6.5,8.84,1.98,12.34,3.18
			c7.48,2.561,15.73,3.091,23.4,5.15c7.14,1.95,14.489,3.54,21.89,2.271c3.561-0.61,6.55-2.07,7.25,2.289
			c2.3,14.2,0.44,30.7,0.39,44.671c-0.119,15.97-0.229,31.939-0.6,47.909c-0.6,28.311,1.39,59.311-3.14,87.24
			c-1.12,6.93-6.21,11.83-13.141,12.16c-22.689,1.09-16.88-24.31-16.569-39.23C272.03,837.04,273.161,815.35,275.39,793.76
			C275.39,793.671,274.61,801.29,275.39,793.76z"/>
		<path id="_R_G_L_3_G_D_7_P_0" fill="#E41072" d="M264.621,592.98c-5.28,5.92,18.369,10.44,20.319,10.29
			c7.45-0.45,22.75,12.9,25.971,18.979c4.939,9.4,8.71,19.28,11.8,29.431c0.8,2.68,4.59,21.76,4.59,21.76s8.01,22.42-9.34,23.18
			c-4.15,0.181-9.641-18.399-12.88-16.149c-6.16,4.29,6.399,20.1-4.46,22.96c-1.23,0.29-2.46,0.54-3.71,0.71
			c-7.381,0.96-14.78-0.97-21.86-2.811c-8.79-2.199-18.35-2.72-26.76-6.239c-5.721-2.391-8.521-7.271-8.67-13.351
			c-0.141-5.439,1.199-10.72,3.859-15.46c3.59-6.41,3.101-15.939,2.66-22.979c-0.15-2.44-0.939-18.03-4.31-16.73
			c-2.82,1.08-8.061,3.78-6.591,7.521c0.341,0.84,0.601,1.699,0.801,2.58c0.569,2.489,0.55,5.069,0.77,7.6
			c0.33,4.5,1.521,8.83,2.4,13.24c1.13,6.04-4,6.71-6.86,11.01c-0.479,0.7-13.149-25.68-13.439-26.41
			c-4.74-12.03-7.171-18.77,1.689-29.22c6.311-7.58,18.23-20.78,28.84-21.74C250.61,591.051,265.23,592.4,264.621,592.98
			C264.54,593.08,265.29,592.35,264.621,592.98z"/>
		<path id="_R_G_L_3_G_D_8_P_0" fill="#71A8D9" d="M274.61,749.24c-0.159-4.42-0.13-15.77-3.029-20.18
			c-0.271-0.42-0.63-0.78-1.061-1.021c-19.52-11.109-7.56,24.851-4.84,32.69C270.56,774.77,274.8,754.78,274.61,749.24z"/>
		<g id="_R_G_L_3_G_D_9_P_0_G_0_T_0" transform=" translate(325.048, 683.166)">
			<g id="_R_G_L_3_G_D_9_P_0_G_1_T_0" transform=" translate(353.917, 666.572)">
				<path id="_R_G_L_3_G_D_9_P_0" fill="#F7AFB4" d="M-12.92,1.19C-13.77,3.05-17.2,3.34-14.76,5.811
					c1.471,1.479,3.42,7.229,5.04,7.91C-7.54,14.63-3.86,8.76-2.96,7.59c4.21-5.5,7.76-4.06,13.55-6.77
					c1.91-0.9,6.609-4.32,6.31-7.04c-0.27-2.49-7.31,0.62-8.38,0.8C4.71-4.76-0.34-3.24-4.22-3.93c-2.609-0.47-3.3-10.7-4.58-9.9
					C-12.7-11.39-8.341-1.899-12.92,1.19C-13.21,1.82-12.051,0.61-12.92,1.19z"/>
			</g>
		</g>
		<g id="_R_G_L_3_G_D_10_P_0_G_0_T_0" transform=" translate(325.048, 683.166)">
			<g id="_R_G_L_3_G_D_10_P_0_G_1_T_0" transform=" translate(337.688, 677.92) translate(0, 0)">
				<path id="_R_G_L_3_G_D_10_P_0" fill="#E41072" d="M-20.071,2.2C-16.94-4.17-10.93-4.709-6.1-6.22c3.13-0.92,6.26-3.14,9.17-4.64
					c2.56-1.311,5.13-2.59,7.689-3.87c1.57-0.78,3.13-1.57,4.7-2.35c3.84-1.811,8.01,7.5,5.561,9.88
					C8.96,3.671-1.97,17.95-19.321,18.711C-23.47,18.89-23.19,8.58-20.071,2.2z"/>
			</g>
		</g>
	</g>
	<g id="_R_G_L_2_G">
		<path id="_R_G_L_2_G_D_0_P_0" fill="#EA7D82" d="M847.41,414.69c0,0,1.58,28,0.88,28.29c0.49,3.33,0.69,6.55,0.44,9.91
			c-1.01,8.78-1.56,6.91-5.62,12.96c-1.33,2.11-1.24,6.58-0.67,9c0.36,1.57,1.6-4.24,3.85-4.71c2.561-0.53,1.801,0.03,4.261-0.99
			c7.18-2.7,7.359-21.32,6.819-28.21c-0.239-3.05-0.109-9.88-0.109-9.88l0.68-18.87L847.41,414.69z"/>
		<path id="_R_G_L_2_G_D_1_P_0" fill="#494D67" d="M824.36,579.22c-2.41-32.32-16.689-62.49-17.66-94.91
			c-0.229-7.61,0.28-15.24,1.53-22.75c2.03-12,2.25-8.75,12.44-7.05c5.989,0.979,12.119,0.06,17.56-2.54
			c6.49-3.17,7.67-5.07,11.15,2.25c1.62,4.05,2.59,8.33,2.75,12.7c0.689,12.47-3.891,24.47-5.98,36.609
			c-3.92,22.83,7.4,46.07,8.54,69.33c0.16,6.73-9.29,4.271-10.08-0.82c-1.15-8.06-3.09-16.64-5.7-24.26
			c-3.319-9.38-9.069-22.46-8.05-31.99c-1.7,15.99,3.85,31.341,5.4,47.141c0.33,6.13,0.899,12.22,0.93,18.359
			C837.27,591,825.03,587.171,824.36,579.22C824.35,579.11,824.37,579.29,824.36,579.22z"/>
		<path id="_R_G_L_2_G_D_2_P_0" fill="#494D67" d="M839.63,599.33c7.899,20.49-47.86,1.101-19.04-1.729
			C822.11,597.45,838.63,596.85,839.63,599.33z"/>
		<path id="_R_G_L_2_G_D_3_P_0" fill="#494D67" d="M839.92,581.72c4.59,3.13,9.67,13.64,15.729,8.77c4.99-4,2.06-9.63-2.86-8.21
			c-2.01,0.57-4.56,0.351-5.789-1.53c-2.211-3.399-0.25-7.199-5.091-8.029c-4.43-0.76-4,1.529-3.5,5.439
			C838.57,579.51,838.78,580.82,839.92,581.72C840.03,581.78,839.92,581.711,839.92,581.72z"/>
		<path id="_R_G_L_2_G_D_4_P_0" fill="#EA7D82" d="M810.81,433.591l-11.55-11.261v18.83c0,0,1.58,13.011,0.88,13.301
			c0.49,3.329,0.68,6.55,0.44,9.909c-1.021,8.771-1.561,6.91-5.631,12.96c-1.319,2.101-1.229,6.58-0.66,9
			c0.36,1.57,1.601-4.25,3.841-4.71c2.569-0.529,1.81,0.021,4.26-0.989c7.19-2.7,7.37-21.33,6.83-28.21
			c-0.24-3.061-0.12-9.891-0.12-9.891l0.689-3.87L810.81,433.591z"/>
		<g id="_R_G_L_2_G_D_5_P_0_G_0_T_0" transform=" translate(829.186, 401.687)">
			<g id="_R_G_L_2_G_D_5_P_0_G_1_T_0" transform=" translate(842.964, 385.366) translate(0, 0)">
				<path id="_R_G_L_2_G_D_5_P_0" fill="#474C6A" d="M-20.62-7.93c-0.76-6.22-4.229-22.369,5.58-21.97
					c5.48,0.23,12.04,0.851,16.53,4.28C5.51-22.43,11.6-26,16.45-23.98c7.68,3.19,7.41,12.351,8.13,19.391
					c0.2,1.899,0.271,3.79,0.12,5.689c-0.18,1.851-0.5,3.62-1.07,5.38C21.51,12.9,15.36,17.8,19.19,25.04
					c2.77,5.26-6.82,3.25-8.471,2.49c-1.699-0.78-3.18-1.961-4.22-3.54c-6.3-9.94,5.69-24.94,3.601-36.2
					C8.79-19.31,7.4-9.29,7.37-8.78c-0.189,3.59-1.71,6.86-4.06,9.521C-0.53,5.07-9.319,9.11-13.68,4.081
					c-4.2-5.15,1.02-6.16-0.681-11.221C-15.5-10.589-20.59-7.4-20.62-7.93C-20.63-7.969-20.59-7.419-20.62-7.93z"/>
			</g>
		</g>
		<g id="_R_G_L_2_G_D_6_P_0_G_0_T_0" transform=" translate(829.186, 401.687)">
			<g id="_R_G_L_2_G_D_6_P_0_G_1_T_0" transform=" translate(824.923, 381.559) translate(0, 0)">
				<path id="_R_G_L_2_G_D_6_P_0" fill="#E77E80" d="M-4.86-18.54C-8.24-16.23-9.09-6.22-10.069-2.14
					C-11.18,2.4-7.92,4.24-4.94,6.79C-2.08,9.24-3.6,19.98-1.96,20.39c1.29,0.359,2.66,0.45,3.99,0.279
					c3.79-0.46,9.15-3.279,6.95-7.52c-0.4-0.8-9.4-8.52-7.37-10.81C2.75,1.07,6.02-2.79,2.76-4.489
					C-1.59-6.779-4.23-3.58-3.09-11.38C-2.97-12.23-2.13-20.84-4.86-18.54C-5.9-17.83-3.86-19.39-4.86-18.54z"/>
			</g>
		</g>
		<path id="_R_G_L_2_G_D_7_P_0" fill="#E87E7D" d="M829.91,588.61c5.83,2.4,8.12-3.51,9.021,2.83c1.479,10.37-11.71,7.4-10.1,1.62
			C828.95,592.631,828.789,588.051,829.91,588.61C831.05,589.08,829.9,588.6,829.91,588.61z"/>
		<path id="_R_G_L_2_G_D_8_P_0" fill="#E87E7D" d="M855.36,581.35c-5.56,3.2-12.21-3.48-3.91-2.26c1.45,0.189,4.01-1.181,4.48,0.399
			c0-0.029-0.021-0.08-0.03-0.109C855.7,578.44,856.43,580.77,855.36,581.35C854.73,581.711,855.38,581.341,855.36,581.35z"/>
		<path id="_R_G_L_2_G_D_9_P_0" fill="#E73B97" d="M834.36,395.591c3.66,10.699-12.25,4.529-14.41,6.189
			c-8.63,6.47-30.34,16.641-18.64,27.65c2.55,2.26,5.31,4.33,8.899,4.16c5.49-0.341-2.8,20.31,5.57,23.12
			c7.7,2.529,16.44,2.529,23.83-0.98c11.05-5.2,6.84-16.66,7.76-27.02c0.801-9.391,3.25-8.19,8.92-13.061
			c6.7-5.62-0.67-15.86-6.039-20.78C847.6,392.461,833.539,393.87,834.36,395.591C834.74,396.69,833.959,394.75,834.36,395.591z"/>
	</g>
	<g id="_R_G_L_1_G" transform=" translate(587.065, 561.895) translate(-618.065, -548.895)">
		<path id="_R_G_L_1_G_D_0_P_0" fill="#D4DCEF" d="M960.24,746.7c-0.38,5.98-2.12,14.45-9.03,15.83
			c-8.529,1.78-1.3,20.88,8.621,2.94c2.709-4.811,3.039-8.9,2.359-14.12c-0.12-0.84-1.66-6.7-1.42-7.18
			C960.45,744.98,960.27,745.83,960.24,746.7z"/>
		<path id="_R_G_L_1_G_D_1_P_0" fill="#D4DCEF" d="M911.99,637.07c0.22-10.06,0.67-20.109,1.4-30.149
			c0.5-7.07,3.97-36.851,5.3-36.15c2.95,1.5,6.05,2.71,9.25,3.6c3.1,0.88,6.311,1.431,9.53,1.67c6.12,0.431,13.68-3.529,19.16-2.97
			c8.329,0.86,12.12,27.601,12.12,34.95c-0.091,6.79-1.801,13.12-3.961,19.45c-0.81,2.35-1.619,4.71-2.239,7.13
			c-1.311,5.13,0.85,13.43-5.261,14.49c-12.709,2.189-25.14,0.39-36.84-4.891C917.88,643.01,911.43,640.68,911.99,637.07
			C911.99,636.82,911.7,638.93,911.99,637.07z"/>
		<path id="_R_G_L_1_G_D_2_P_0" fill="#D4DCEF" d="M922.93,736.961c-3.87,5.3-9.18,14.02-16.3,15.189
			c-3.761,0.62-7.341-1.479-10.91,0.771c-3.33,2.09-4.431,6.97-0.32,9.02c6.84,3.42,15.45-4,20-8.17
			c2.78-2.55,5.521-5.16,7.771-8.21C923.86,744.631,927.709,734.81,922.93,736.961C921.77,738.54,924.98,736.04,922.93,736.961z"/>
		<path id="_R_G_L_1_G_D_3_P_0" fill="#FFFEFE" d="M942.039,538.19c-4.52,1.01-8.88,0.17-13-1.97
			c-7.38-3.82-10.409,29.83-7.56,35.18c1.58,2.97,16.44,7.12,16.101,2.11c-0.08-1.101-0.121-2.21-0.15-3.32
			c-0.04-1.76,0.02-3.51,0.12-5.26c0.2-3.34,0.68-6.66,1.35-9.931C939.459,552.211,944.31,537.54,942.039,538.19
			C942.01,538.2,942.86,537.961,942.039,538.19z"/>
		<path id="_R_G_L_1_G_D_4_P_0" fill="#E73B97" d="M911.64,519.08c3.11-3.39,6.79-10.149,11.81-8.569c3.15,0.96,6.49,0.83,9.73,1.08
			c2.27,0.14-7.23,21.93-8.04,24.38c-0.67,1.899-1.26,3.85-1.99,5.729c-2.899,8.7-1.54,18.42-1.569,27.48c0,5.95-5.99-0.7-5.961-4
			c0.09-5.57-0.189-29.9-6.68-22.37c-4.03,4.78-7.96,10.78-14.49,11.439c-7.71,0.761-2.71-15.189,0.551-18.239
			C895.16,535.86,906.3,524.921,911.64,519.08z"/>
		<path id="_R_G_L_1_G_D_5_P_0" fill="#C56788" d="M923.59,732.921c-1.11-19.53,3.55-40.07,5.27-59.48
			c0.76-6.34,6.33-23.92-0.57-26.13c-1.25-0.39-2.479-0.84-3.689-1.34c-5.62-2.33-12.75-10.54-12.45-0.42
			c0,21.25,0.8,42.54,1.36,63.779c0.16,6.07,3.359,20.03-0.54,25.101c-2.32,3.05-18.86,19.52-6.89,17.77
			C912.36,751.24,924.62,740.15,923.59,732.921C923.59,732.881,923.86,734.77,923.59,732.921z"/>
		<path id="_R_G_L_1_G_D_6_P_0" fill="#C56788" d="M938.82,652.551c4.11,23.229,7.96,46.52,10.3,70.01
			c0.86,8.6,1.551,17.37,0.7,26.01c-0.13,1.67-0.319,3.34-0.53,5c-0.239,1.76-2.13,6.47-1.039,8.46
			c3.319,6.23,11.399-10.17,11.64-11.859c0.75-5.521,0.13-10.181-0.79-15.53c-1.21-7.46,1.02-13.98,2.55-21.18
			c1.55-7.33-0.04-14.381-2.03-21.44c-0.479-1.98-1.039-3.93-1.369-5.95c-1.15-6.85,0.359-14.09,0.979-20.93
			c0.16-1.76,2.86-17.55-0.49-16.61C955.94,649.32,937.9,649.301,938.82,652.551C938.85,652.711,938.36,650.921,938.82,652.551z"/>
		<path id="_R_G_L_1_G_D_7_P_0" fill="#2A1010" d="M921.081,505.85c-1.03-4.37-0.971-8.87-0.61-13.32c0.239-2.6,0.45-5.21,0.77-7.8
			c0.08-0.78,0.17-1.55,0.3-2.32c1.95-13.109,6.86-4.39,10.011,1.17c2.51,4.431,11.21,15.761,14.909,11.03
			c1.811-2.3,5.461-0.97,6.11,1.62c0.98,3.86-2.52,4.31-3.84,6.69c-1.21,2.189-0.08,6.31-0.47,8.979c-0.15,1.38-0.71,3.04-0.57,4.43
			c0.48,4.24,11.02-2.18,11.641-2.81c2.699-2.67,1.75,0.44,3.39,0.86c5.739,1.46,7.85-13.061,7.16-15.98
			c-3.07-13.21-11.811-30.35-25.671-32c-20.64-2.45-23.25,11.51-26.56,27.66c-0.14,0.67-4.51,19.14,0.92,16.75
			C920.15,510.11,921.67,507.421,921.081,505.85C921.07,505.78,921.57,507.15,921.081,505.85z"/>
		<path id="_R_G_L_1_G_D_8_P_0" fill="#E73B97" d="M952.7,517.31c-3.31,1.16-3.35,9.32-4.699,12.689
			c-4.391,11.08-8.61,20.801-9.801,33.08c-1.069,11.07-2.21,14.75,9.36,12.42c3.03-0.6,10.76-1.479,10.93-5.64
			c0.101-1.84,0.32-3.67,0.75-5.46c0.92-4.51,5.13-17.11,7.4-8.28c1.18,4.67,1.8,9.66-1.66,13.45c-1.16,1.28,7.68,13.21,9.76,10.55
			c6.261-7.77,8.101-8.14,7.17-19.01c-0.409-4.729-1.529-9.57-2.71-14.18c-1.42-7.65-3.09-16.3-9.25-21.5
			C965.48,521.75,958.039,515.49,952.7,517.31C952.4,517.421,952.72,517.31,952.7,517.31z"/>
		<path id="_R_G_L_1_G_D_9_P_0" fill="#C56788" d="M943.94,496.801c-5.66-3.25-16.92-22.13-17.92-21.67
			c-6.67,3.09-6.86,23.619-5.04,30.109c1.11,4.181,3.31,6.26,7.83,6.21c4.55-0.04,8.14-1.229,5.1,4.03
			c-5.68,9.64-12.79,24.13,4.98,22.98c19.09-1.29,5.13-30.98,10.71-36.171c2.04-1.989,4.33-4.88,2.22-7.619
			C948.789,490.73,946.289,498.14,943.94,496.801z"/>
		<g id="_R_G_L_1_G_D_10_P_0_G_0_T_0" transform=" translate(896.599, 544.809)">
			<g id="_R_G_L_1_G_D_10_P_0_G_1_T_0" transform=" translate(848.243, 539.735) translate(0, 0)">
				<path id="_R_G_L_1_G_D_10_P_0" fill="#C56788" d="M-10.4,0.921C-2.9,2.36-7.53,1.49-4.72,4.65c1,1.34,20.061,0.811,19.551,1.71
					c0.68-1.21,1.09-2.55,1.09-3.939c0.04-8.78-12.13-5.17-18.141-5.17C-4.71-2.74-7.2-2.789-9.69-2.89
					C-13.93-3.05-15.96-0.1-10.4,0.921C-8.95,1.2-10.42,0.921-10.4,0.921z"/>
			</g>
		</g>
		<g id="_R_G_L_1_G_D_11_P_0_G_0_T_0" transform=" translate(896.599, 544.809)">
			<g id="_R_G_L_1_G_D_11_P_0_G_1_T_0" transform=" translate(879.953, 542.845) translate(0, 0)">
				<path id="_R_G_L_1_G_D_11_P_0" fill="#E73B97" d="M8.07-4.53C16.47-4.43,27.84,1.601,20.35,8.13
					c-4.67,4.17-8.86,5.59-15.42,5.32c-7.74-0.34-15.399-1.68-22.88-3.7c-3.79-1.16-9.891-2.47-7.72-8.149
					c1.189-3.12,3.51-4.551,1.93-8.051c-0.5-1.13-1.47-2.979-0.07-4.13c3.41-3.14,9.681,2.221,12.9,3.21
					C-9.95-7.06-8.969-6.78-8-6.49C-3.52-5.26,4.409-1.97,8.07-4.53C8.24-4.66,8.05-4.51,8.07-4.53z"/>
			</g>
		</g>
		<path id="_R_G_L_1_G_D_12_P_0" fill="#C56788" d="M938.56,604.631c-0.63,1.989-5.34,15.51-3.46,16.42
			c2.26,1.109,4.43-11.79,5.24-13.021c0.16-0.229-0.24,13.931,0.83,14.15c2.68,0.359,3.76-11.9,3.729-13.62
			c0,1.3-0.58,12.22,0.8,12.29c3.04,0.17,0.53-12.68,2.771-12.851c0.53-0.02,0.58,9.301,1.06,9.32c2.99,0.141,1.62-6.62,1.62-9.14
			c-0.3-5.09,4.851-15.78-1.8-17.13c-5.92-1.16-8.88,5.71-11.65,9.01c-1.29,1.71-8.619,5.36-5.05,7.31
			C934.831,608.56,938.86,603.801,938.56,604.631C938,606.4,938.77,604.051,938.56,604.631z"/>
		<path id="_R_G_L_1_G_D_13_P_0" fill="#E73B97" d="M959.27,576.82c-1.16,1.271-2.439,2.44-3.84,3.44
			c-5.311,3.83-13.15,5.279-16.86,11.08c-0.64,1-2.64,5.739,0.261,5.92c4.02,0.27,8.81-6.63,12.489-2.271
			c2.49,2.95-1.45,8.94,4.33,7.98c3.4-0.38,7.45-7.26,9.53-9.92c6.26-7.78,16.6-18.86,11.02-24.69
			C969.16,562.961,962.73,573.03,959.27,576.82z"/>
	</g>
	<g id="_R_G_L_0_G">
		<path id="_R_G_L_0_G_D_0_P_0" fill="#D3D3EA" d="M890.74,705.06c2.761-13.48,3.8-27.14,3.69-40.87
			c-0.1-5.979-0.29-11.94-0.65-17.91c-0.09-1.67,0.49-15.819-1.14-17.26c6.39,5.61,6.55,26.32,7.03,34.82
			c0.359,6.02,0.189,12.09-0.65,18.06c-0.65,4.5-1.689,8.95-3.2,13.25C895.07,697.32,890.87,703.381,890.74,705.06
			C890.79,704.801,890.66,706.02,890.74,705.06z"/>
		<path id="_R_G_L_0_G_D_1_P_0" fill="#3E80C2" d="M831.73,722.94c5.4,4.72,12.56,5.83,19.521,5.49
			c6.409-0.181,34.13-9.55,36.6-5.17c1.359,2.45,2.03,5.45,2.68,8.149c2.101,8.601,2.5,17.471,2.141,26.28
			c-0.33,7.6-1.11,15.17-1.75,22.74c-1.69,19.64,4.869,38.31,9.77,57.21c2.15,8.47,4.08,17.02,5.8,25.59
			c1.681,8.39-7.59,14.56-15.05,11.11c4.82,1.989-1.439-3.311-2.29-4.351c-2.86-3.51-3.13-6.74-4.46-10.89
			c-0.609-2.04-1.23-4.07-1.82-6.11c-2.64-8.93-5.069-17.92-7.399-26.939c-2.84-11.73-5.761-23.44-8.32-35.23
			c-1.12-5.109-9.7-32.63-7.46-34.85c-5.62,5.46-3.84,23.05-4.32,30.81c-0.699,11.67-0.89,23.36-0.66,35.061
			c0.11,5.06,0.25,10.12,0.471,15.18c0.35,8.26,8.17,51.77,1.4,55.41c-5.4,2.76-17.15,4.399-18.051-4.28
			c-0.88-8.08-1.6-16.17-2.359-24.26c-1.57-18.58-3.011-37.15-4.09-55.76c-0.871-13.96-1.521-27.931-2.15-41.9
			c-0.53-11.76-1.04-23.52-1.44-35.29C828.44,729.631,826.85,717.9,831.73,722.94C833.56,724.54,830.74,721.921,831.73,722.94z"/>
		<path id="_R_G_L_0_G_D_2_P_0" fill="#E7EBF4" d="M853.88,627.26c4.189,0.79,11.37,1.68,14.31-1.84
			c4.58-5.48,17.09-10.271,22.52-2.851c6.881,8.94,3.66,30.23,3.66,42.36c0,17.2-1.3,34.5-6.439,51.01
			c-4.67,15.81-56.33,17.49-60.311,0.85c-3.039-12.71-3.76-28.1,3.4-38.71c1.25-1.77,2.32-3.699,3.25-5.649
			c1.311-2.82,2.29-5.72,3.13-8.7c1.03-3.79,1.87-7.79,1.681-11.73c-0.131-3.119-0.931-6.229-2.621-8.869
			c-0.75-1.17-6.079-4.9-5.029-6.11C835.56,632.23,847.37,626.1,853.88,627.26C853.94,627.27,853.86,627.26,853.88,627.26z"/>
		<path id="_R_G_L_0_G_D_3_P_0" fill="#C76E7B" d="M901.35,873.801c-7.391,4.189-13.49-7.41-19.061,0.22
			c-2.449,3.29-2.31,6.979,0.771,9.52c1.021,0.841,2.16,1.521,3.229,2.301c4.53,3.29,5.67,10.39,11.061,12.149
			c5.82,1.91,7.52-2.87,7.78-7.81C905.27,887.54,905.59,870.68,901.35,873.801C900.17,874.47,903.32,872.35,901.35,873.801z"/>
		<path id="_R_G_L_0_G_D_4_P_0" fill="#C76E7B" d="M844.91,894.421c8.83,1.569,12.07-4.83,14.16,8.01c0.25,1.54,0.42,3.09,0.5,4.649
			c0.13,1.82,0.13,3.66,0.08,5.49c0,17.09-30.39-2.689-39.26-1.39c-11.38,1.649-7.48-15.141,5.49-12.97
			c1.31,0.21,2.609,0.5,3.92,0.67c6.409,1.04,7.77-4.11,12.59-4.69C843.23,894.091,844.09,894.27,844.91,894.421
			C845.24,894.48,844.89,894.421,844.91,894.421z"/>
		<path id="_R_G_L_0_G_D_5_P_0" fill="#FAD3DD" d="M837.38,589.81c7.239,2.76,1.689,5.08,1.979,10.43c0.19,3.3,9.8-8.899,9.91,0.021
			c0.061,4.34-2.939,5.79,1.01,9.68c1.58,1.65,3.51,2.7,5.71,3.19c5.601,1.239,6.101,1.05,9.351,5.88
			c1.77,2.6,6.729,3.489,2.869,6.489c-4.159,3.671-11.329,1.98-16.22,1.351c0.011,0.01-3.399-10.64-7.13-12.5
			c-4.14-2.07-10.68-0.03-10.029-6.99C834.94,606.301,834.209,588.31,837.38,589.81C837.94,590.03,836.77,589.52,837.38,589.81z"/>
		<path id="_R_G_L_0_G_D_6_P_0" fill="#6E4E55" d="M833.44,577.921c0.16,4.119-0.91,9.02,3.141,11.51
			c8.35,2.78,0.92,10.399,3.239,11.64c2.45,1.33,4.37-3.53,5.94-4.189c5.449-2.29,1.91,8.63,2.32,9.76
			c2.079,5.78,11.879,9.51,17.52,6.96c2.939-1.32,6.609-12.14,8.1-16.78c1.48-4.71,1.381-10.01-0.85-14.47
			c-3.061-6.34-9.44-10.28-16.391-10.61C853,571.53,832.98,574.27,833.44,577.921C833.49,579.07,833.32,576.961,833.44,577.921z"/>
		<g id="_R_G_L_0_G_D_7_P_0_G_0_T_0" transform=" translate(832.716, 652.21)">
			<g id="_R_G_L_0_G_D_7_P_0_G_1_T_0" transform=" translate(812.021, 697.935)">
				<g id="_R_G_L_0_G_D_7_P_0_G_2_T_0" transform=" translate(765.486, 676.627) translate(0, 0)">
					<path id="_R_G_L_0_G_D_7_P_0" fill="#FAD3DD" d="M-14.9-6c3.771,12.4,17.811,8.62,25.98,15.94c4.75,4.27,6.24-5.37,5.93-5.58
						c-3.06-1.78-6.02-3.28-8.189-6.08C5.54-5.44-17.32-14.21-14.9-6C-14.37-4.25-14.91-6.03-14.9-6z"/>
				</g>
			</g>
		</g>
		<g id="_R_G_L_0_G_D_8_P_0_G_0_T_0" transform=" translate(832.716, 652.21)">
			<g id="_R_G_L_0_G_D_8_P_0_G_1_T_0" transform=" translate(812.021, 697.935)">
				<g id="_R_G_L_0_G_D_8_P_0_G_2_T_0" transform=" translate(795.887, 691.97) translate(0, 0)">
					<path id="_R_G_L_0_G_D_8_P_0" fill="#D3D3EA" d="M19.03,8.49C14.6,17.311,2.871,9.44,2.871,9.44L-23.68-3.89l6.67-13.42
						L4.3-4.99C4.3-4.99,23.68-2.319,19.03,8.49z"/>
				</g>
			</g>
		</g>
		<g id="_R_G_L_0_G_D_9_P_0_G_0_T_0" transform=" translate(832.716, 652.21)">
			<g id="_R_G_L_0_G_D_9_P_0_G_1_T_0" transform=" translate(822.016, 670.549) translate(0, 0)">
				<path id="_R_G_L_0_G_D_9_P_0" fill="#D3D3EA" d="M12.26-30.379C20.9-21.43,16.24-4.6,10.34,5.38
					c-3.13,5.41-12.29,25.86-17.189,29.7C-20.9,37.56-17.59,18.67-17.59,18.67S-8.66-9.5-6.77-13.65
					C-4.61-18.52,5.44-37.56,12.26-30.379C14.49-28.07,12.24-30.4,12.26-30.379z"/>
			</g>
		</g>
		<path id="_R_G_L_0_G_D_10_P_0" fill="#205BAA" d="M863.95,777.31c-1.77-6.82-10.83-23.44-1.71-25.86
			c7.63-2.02,4.931,4.011,4.48,9.62c-0.49,6.11-0.761,12.23-0.98,18.36C865.709,780.19,864.06,777.78,863.95,777.31
			C861.98,769.75,863.959,777.32,863.95,777.31z"/>
	</g>
</g>
<g id="time_group">
</g>
</svg>
